<svg width="60" height="61" viewBox="0 0 60 61" fill="none" xmlns="http://www.w3.org/2000/svg">
<g clip-path="url(#clip0_232_75)">
<path d="M0 52.4633C0 56.7365 3.46372 60.1997 7.73643 60.1997H52.2636C56.5368 60.1997 60 56.736 60 52.4633V7.93614C60 3.66296 56.5363 0.199707 52.2636 0.199707H7.73643C3.46325 0.199707 0 3.66343 0 7.93614V52.4633Z" fill="#475569" fill-opacity="0.5"/>
<path d="M24.8807 26.7399V18.243H32.36C33.0723 18.243 33.7592 18.3023 34.4206 18.4211C35.0821 18.5398 35.6672 18.7518 36.176 19.057C36.6848 19.3623 37.0918 19.7863 37.3971 20.329C37.7024 20.8718 37.855 21.5671 37.855 22.4151C37.855 23.9415 37.3971 25.0439 36.4813 25.7223C35.5654 26.4007 34.3952 26.7399 32.9706 26.7399H24.8807ZM16.8926 12.0356V48.3638H34.497C36.1251 48.3638 37.7109 48.1603 39.2542 47.7532C40.7976 47.3462 42.1713 46.7187 43.3755 45.8707C44.5796 45.0227 45.5379 43.9288 46.2502 42.5889C46.9625 41.2491 47.3187 39.6633 47.3187 37.8317C47.3187 35.559 46.7675 33.6171 45.6651 32.0059C44.5627 30.3947 42.8921 29.2669 40.6534 28.6224C42.2816 27.8423 43.5112 26.8417 44.3422 25.6205C45.1732 24.3994 45.5887 22.873 45.5887 21.0414C45.5887 19.3454 45.3089 17.9207 44.7492 16.7675C44.1896 15.6142 43.4009 14.6899 42.3833 13.9945C41.3657 13.2992 40.1446 12.7988 38.72 12.4936C37.2953 12.1883 35.7181 12.0356 33.9882 12.0356H16.8926ZM24.8807 42.1564V32.184H33.5811C35.311 32.184 36.7017 32.5826 37.7533 33.3797C38.8048 34.1768 39.3305 35.5081 39.3305 37.3737C39.3305 38.3235 39.1694 39.1037 38.8472 39.7142C38.5249 40.3248 38.0925 40.8081 37.5497 41.1643C37.007 41.5204 36.3795 41.7748 35.6672 41.9275C34.9549 42.0801 34.2087 42.1564 33.4285 42.1564H24.8807Z" fill="black"/>
</g>
<defs>
<clipPath id="clip0_232_75">
<rect width="60" height="60" fill="white" transform="translate(0 0.199707)"/>
</clipPath>
</defs>
</svg>
