<svg width="67" height="77" viewBox="0 0 67 77" fill="none" xmlns="http://www.w3.org/2000/svg">
<g clip-path="url(#clip0_251_35)">
<path d="M66.39 38.21C66.39 44.39 66.39 50.58 66.39 56.76C66.39 57.14 66.32 57.39 65.94 57.61C62.88 59.35 59.84 61.13 56.79 62.89C53 65.08 49.22 67.28 45.43 69.47C41.54 71.72 37.65 73.95 33.77 76.2C33.38 76.43 33.07 76.43 32.64 76.18C30.31 74.81 27.96 73.48 25.62 72.13C23.38 70.84 21.14 69.53 18.9 68.24C16.58 66.9 14.25 65.56 11.93 64.22C9.66 62.91 7.38 61.59 5.11 60.28C3.56 59.39 2.02 58.47 0.46 57.61C0.07 57.4 0 57.15 0.01 56.76C0.01 51.96 0.01 47.16 0.01 42.35C0 34.81 0.01 27.26 0 19.71C0 19.26 0.09 18.98 0.53 18.74C3.4 17.12 6.25 15.46 9.1 13.81C11.87 12.21 14.64 10.59 17.41 8.98999C20.2 7.37999 23 5.77999 25.79 4.16999C28.1 2.83999 30.41 1.50999 32.7 0.159994C33.06 -0.0500064 33.34 -0.0500064 33.68 0.149994C36.43 1.74999 39.19 3.34999 41.94 4.94999C44.47 6.40999 47.01 7.85999 49.54 9.32999C52.06 10.78 54.56 12.25 57.08 13.7C59.87 15.31 62.66 16.93 65.47 18.5C66.13 18.87 66.39 19.27 66.39 20.05C66.35 26.1 66.37 32.16 66.37 38.21H66.39ZM62.37 34.95C62.54 34.78 62.47 34.56 62.47 34.36C62.47 30.19 62.47 26.03 62.49 21.86C62.49 21.38 62.3 21.15 61.94 20.94C59 19.25 56.07 17.55 53.13 15.87C49.8 13.96 46.47 12.06 43.15 10.14C39.96 8.29999 36.77 6.43999 33.59 4.57999C33.39 4.45999 33.2 4.39999 32.96 4.53999C30.25 6.09999 27.53 7.64999 24.82 9.21999C21.61 11.07 18.41 12.94 15.2 14.8C11.61 16.88 8.01 18.97 4.41 21.02C4.04 21.23 3.94 21.46 3.94 21.86C3.95 27.11 3.94 32.36 3.94 37.61C3.94 37.81 3.87 38.02 4.03 38.2C3.91 38.5 3.93 38.82 3.93 39.14C3.93 44.03 3.97 48.92 3.9 53.81C3.88 54.87 4.19 55.49 5.17 55.8C5.28 55.87 5.38 55.95 5.5 56.02C14.6 61.27 23.7 66.51 32.79 71.77C33.12 71.96 33.34 71.94 33.65 71.77C35.42 70.73 37.2 69.71 38.98 68.68C46.65 64.25 54.33 59.81 62.01 55.39C62.37 55.18 62.48 54.96 62.48 54.56C62.47 49.72 62.48 44.89 62.48 40.05C62.48 38.76 62.47 37.47 62.46 36.19C62.46 35.78 62.56 35.36 62.37 34.96V34.95Z" fill="#353C46"/>
<path d="M62.45 36.1698C62.45 37.4598 62.47 38.7498 62.47 40.0398C62.47 44.8798 62.47 49.7098 62.47 54.5498C62.47 54.9498 62.36 55.1698 62 55.3798C54.32 59.7998 46.64 64.2398 38.97 68.6698C37.19 69.6998 35.41 70.7198 33.64 71.7598C33.33 71.9398 33.11 71.9598 32.78 71.7598C23.69 66.4998 14.59 61.2598 5.49003 56.0098C5.38003 55.9398 5.27003 55.8698 5.16003 55.7898C5.16003 55.5998 5.16003 55.4198 5.27003 55.2498C5.69003 54.5898 5.99003 53.8598 6.34003 53.1698C7.92003 50.1298 9.64003 47.1698 11.59 44.3598C13.2 42.0298 14.89 39.7598 17 37.8598C18.61 36.3998 20.37 35.1998 22.74 35.6198C22.78 35.6598 22.82 35.6998 22.87 35.7498C23.24 36.5598 23.62 37.3798 23.98 38.1898C25.25 41.0698 26.44 43.9898 27.91 46.7798C28.76 48.3998 29.67 49.9898 31.05 51.2398C32.19 52.2698 33.47 52.8298 35.04 52.3498C36.49 51.9098 37.71 51.0898 38.75 50.0298C40.01 48.7498 40.99 47.2498 41.89 45.6998C43.08 43.6598 44.18 41.5498 45.58 39.6298C47.14 37.4798 48.98 35.6598 51.52 34.6998C53.77 33.8398 56.1 33.4898 58.47 34.0598C59.95 34.4198 61.24 35.2398 62.45 36.1598V36.1698Z" fill="#353C46"/>
<path d="M22.88 35.74C22.88 35.74 22.8 35.66 22.75 35.61C22.38 34.86 22.04 34.09 21.63 33.36C20.65 31.57 19.55 29.88 18.1 28.42C15.59 25.91 11.9 25.97 9.47005 27.94C8.21005 28.96 7.36005 30.29 6.63005 31.7C5.56005 33.77 4.81005 35.98 4.03005 38.18C3.87005 38 3.94005 37.79 3.94005 37.59C3.94005 32.34 3.94005 27.09 3.94005 21.84C3.94005 21.45 4.03005 21.22 4.41005 21C8.02005 18.94 11.61 16.86 15.2 14.78C18.41 12.92 21.61 11.06 24.82 9.19998C27.53 7.62998 30.25 6.08998 32.96 4.51998C33.2 4.37998 33.39 4.44998 33.59 4.55998C36.78 6.40998 39.9601 8.26998 43.1501 10.12C46.4701 12.04 49.8101 13.94 53.1301 15.85C56.0701 17.54 59 19.23 61.94 20.92C62.3 21.13 62.5001 21.36 62.4901 21.84C62.4701 26.01 62.4801 30.17 62.4701 34.34C62.4701 34.54 62.54 34.75 62.37 34.93C62.18 34.68 61.99 34.42 61.8 34.17C60.69 32.64 59.56 31.14 58.14 29.87C55.75 27.73 52.3201 27.4 49.8801 28.78C48.4701 29.58 47.54 30.84 46.73 32.21C45.73 33.9 44.98 35.72 44.05 37.44C43.33 38.77 42.56 40.07 41.39 41.07C40.45 39.06 39.54 37.04 38.57 35.05C37.64 33.13 36.6501 31.25 35.0601 29.77C33.1101 27.97 30.54 27.96 28.58 29.85C27.46 30.94 26.67 32.26 25.92 33.62C25.43 34.51 25.11 35.5 24.55 36.35C24 36.13 23.52 35.72 22.88 35.72V35.74Z" fill="#A6A6A6"/>
<path d="M4.03002 38.19C4.80002 35.99 5.56002 33.79 6.63002 31.71C7.36002 30.3 8.21002 28.97 9.47002 27.95C11.9 25.98 15.59 25.92 18.1 28.43C19.55 29.89 20.65 31.58 21.63 33.37C22.03 34.1 22.38 34.87 22.75 35.62C20.38 35.21 18.62 36.41 17.01 37.86C14.9 39.76 13.21 42.03 11.6 44.36C9.64002 47.18 7.92002 50.13 6.35002 53.17C5.99002 53.86 5.70002 54.59 5.28002 55.25C5.17002 55.42 5.16002 55.6 5.17002 55.79C4.19002 55.48 3.89002 54.86 3.90002 53.8C3.97002 48.91 3.93002 44.02 3.93002 39.13C3.93002 38.81 3.91002 38.49 4.03002 38.19Z" fill="black"/>
<path d="M41.39 41.09C42.56 40.09 43.33 38.79 44.05 37.46C44.98 35.74 45.73 33.92 46.73 32.23C47.53 30.86 48.47 29.6 49.88 28.8C52.32 27.42 55.75 27.75 58.14 29.89C59.56 31.16 60.69 32.66 61.8 34.19C61.99 34.45 62.18 34.7 62.37 34.95C62.56 35.35 62.46 35.76 62.46 36.18C61.25 35.26 59.96 34.44 58.48 34.08C56.11 33.5 53.78 33.86 51.53 34.72C49 35.68 47.15 37.5 45.59 39.65C44.2 41.57 43.1 43.67 41.9 45.72C40.99 47.27 40.02 48.77 38.76 50.05C37.72 51.11 36.5 51.93 35.05 52.37C33.48 52.85 32.2 52.29 31.06 51.26C29.68 50.01 28.77 48.42 27.92 46.8C26.45 44.01 25.26 41.09 23.99 38.21C23.63 37.39 23.25 36.58 22.88 35.77C23.52 35.77 23.99 36.18 24.55 36.4C24.92 36.67 25.29 36.93 25.65 37.21C27.23 38.43 28.61 39.91 30.26 41.05C32.28 42.44 34.44 43.35 36.97 43.05C38.65 42.85 40.16 42.31 41.39 41.11V41.09Z" fill="black"/>
<path d="M41.39 41.0901C40.16 42.2901 38.6501 42.8301 36.9701 43.0301C34.4301 43.3301 32.28 42.4201 30.26 41.0301C28.61 39.8901 27.23 38.4201 25.65 37.1901C25.29 36.9101 24.92 36.6501 24.55 36.3801C25.12 35.5201 25.43 34.5401 25.92 33.6501C26.67 32.2901 27.46 30.9701 28.58 29.8801C30.54 27.9801 33.1101 27.9901 35.0601 29.8001C36.6501 31.2701 37.65 33.1601 38.57 35.0801C39.53 37.0801 40.45 39.0901 41.39 41.1001V41.0901Z" fill="#353C46"/>
</g>
<defs>
<clipPath id="clip0_251_35">
<rect width="66.41" height="76.37" fill="white"/>
</clipPath>
</defs>
</svg>
