<svg width="207" height="41" viewBox="0 0 207 41" fill="none" xmlns="http://www.w3.org/2000/svg">
<path d="M66.2995 12.7298C62.0998 12.7298 58.7952 16.3099 58.7952 20.9226C58.7952 25.5009 62.0998 29.0809 66.2995 29.0809C68.4681 29.0809 70.4647 28.1171 71.9105 26.3271C72.0138 26.1894 72.1859 26.1894 72.3236 26.2926L74.6644 28.1515C74.8021 28.2548 74.8021 28.4269 74.6988 28.5646C72.6334 31.2152 69.5353 32.7643 66.1962 32.7643C60.0344 32.7643 55.043 27.463 55.043 20.9226C55.043 14.3822 60.0688 9.08094 66.1962 9.08094C69.5353 9.08094 72.6334 10.5956 74.6988 13.2806C74.8021 13.4183 74.7676 13.5904 74.6644 13.6937L72.3236 15.587C72.1859 15.6902 72.0138 15.6558 71.9105 15.5525C70.4991 13.7281 68.5026 12.7298 66.2995 12.7298ZM81.8589 8.39247H77.8657C77.6592 8.39247 77.4871 8.53017 77.4871 8.66787V32.1102C77.4871 32.2823 77.6592 32.3856 77.8657 32.3856H81.8589C82.0654 32.3856 82.2375 32.2479 82.2375 32.1102V8.66787C82.2719 8.53017 82.0998 8.39247 81.8589 8.39247ZM95.4561 24.6059C95.4561 21.9553 93.5972 19.9932 91.1188 19.9932C88.6747 19.9932 86.8158 21.9897 86.8158 24.6059C86.8158 27.2909 88.6747 29.3219 91.1188 29.3219C93.5972 29.3219 95.4561 27.2909 95.4561 24.6059ZM91.1188 16.5164C95.6282 16.5164 99.0361 19.9932 99.0361 24.6059C99.0361 29.2531 95.6282 32.7987 91.1188 32.7987C86.6093 32.7987 83.2358 29.2875 83.2358 24.6059C83.2014 19.3047 87.1945 16.5164 91.1188 16.5164ZM114.974 16.8606H112.014C111.842 16.8606 111.738 16.9983 111.738 17.136V24.9846C111.738 28.0482 109.604 29.1498 107.814 29.1498C106.196 29.1498 104.578 27.945 104.578 25.2255V17.136C104.578 16.9639 104.441 16.8606 104.303 16.8606H101.343C101.17 16.8606 101.033 16.9983 101.033 17.136V25.6042C101.033 30.2513 103.133 32.7987 106.954 32.7987C108.33 32.7987 110.602 32.0069 111.429 30.2513L111.704 30.3202V32.1446C111.704 32.3167 111.842 32.42 111.979 32.42H114.94C115.112 32.42 115.215 32.2823 115.215 32.1446V17.136C115.25 16.9983 115.112 16.8606 114.974 16.8606ZM129.811 24.6059C129.811 21.7488 127.504 19.9932 125.37 19.9932C122.96 19.9932 121.067 22.0241 121.067 24.6059C121.067 27.2221 122.96 29.2875 125.37 29.2875C127.539 29.2875 129.811 27.5319 129.811 24.6059ZM133.115 8.39247C133.287 8.39247 133.391 8.53017 133.391 8.66787V32.1102C133.391 32.2823 133.253 32.3856 133.115 32.3856H130.155C129.983 32.3856 129.88 32.2479 129.88 32.1102V30.0104L129.707 30.3202C128.606 32.1102 126.368 32.7298 124.785 32.7298C120.62 32.7298 117.487 29.2186 117.487 24.5715C117.487 19.2358 121.136 16.4476 124.75 16.4476C126.85 16.4476 128.778 17.377 129.673 18.8228L129.845 19.0982V8.59902C129.845 8.4269 129.983 8.32363 130.12 8.32363H133.115M141.652 16.8606H137.659C137.453 16.8606 137.281 16.9983 137.281 17.136V32.1446C137.281 32.3167 137.453 32.42 137.659 32.42H141.652C141.859 32.42 142.031 32.2823 142.031 32.1446V17.136C142.065 16.9983 141.893 16.8606 141.652 16.8606ZM139.105 8.87441C137.762 8.87441 136.695 9.90711 136.695 11.2496C136.695 12.5577 137.762 13.6248 139.105 13.6248C140.447 13.6248 141.48 12.5921 141.48 11.2496C141.48 9.90711 140.447 8.87441 139.105 8.87441ZM152.978 16.5164C151.67 16.5164 149.363 17.2049 148.503 19.0637L148.227 18.9949V17.136C148.227 16.9639 148.089 16.8606 147.952 16.8606H144.991C144.819 16.8606 144.716 16.9983 144.716 17.136V32.1446C144.716 32.3167 144.854 32.42 144.991 32.42H147.952C148.124 32.42 148.227 32.2823 148.227 32.1446V24.2961C148.227 21.2668 150.361 20.1653 152.151 20.1653C153.769 20.1653 155.387 21.3701 155.387 24.0551V32.1446C155.387 32.3167 155.525 32.42 155.663 32.42H158.623C158.795 32.42 158.898 32.2823 158.898 32.1446V23.6765C158.898 19.0637 156.799 16.5164 152.978 16.5164ZM173.253 24.6059C173.253 21.7488 170.947 19.9932 168.812 19.9932C166.403 19.9932 164.509 22.0241 164.509 24.6059C164.509 27.2221 166.403 29.2875 168.812 29.2875C171.015 29.2875 173.253 27.5319 173.253 24.6059ZM176.592 16.8606C176.764 16.8606 176.867 16.9983 176.867 17.136V32.1446C176.867 32.3167 176.73 32.42 176.592 32.42H173.632C173.46 32.42 173.356 32.2823 173.356 32.1446V30.0448L173.184 30.3546C172.083 32.1446 169.845 32.7643 168.262 32.7643C164.096 32.7643 160.964 29.2531 160.964 24.6059C160.964 19.2703 164.613 16.482 168.227 16.482C170.327 16.482 172.255 17.4114 173.15 18.8572L173.322 19.1326V17.1016C173.322 16.9295 173.46 16.8262 173.597 16.8262H176.592M190.086 16.8951C189.535 16.6541 188.744 16.5164 187.952 16.5164C185.99 16.5164 184.544 17.6868 183.821 19.9243L183.546 19.8899V17.136C183.546 16.9639 183.408 16.8606 183.27 16.8606H180.31C180.138 16.8606 180.034 16.9983 180.034 17.136V32.1446C180.034 32.3167 180.172 32.42 180.31 32.42H183.305C183.477 32.42 183.58 32.2823 183.58 32.1446V27.0155C183.58 20.8882 186.024 19.9932 187.47 19.9932C188.089 19.9932 188.675 20.1309 189.26 20.3718C189.329 20.4062 189.432 20.4062 189.501 20.3718C189.57 20.3374 189.639 20.2686 189.639 20.1653L190.224 17.2393C190.258 17.1016 190.189 16.9639 190.086 16.8951ZM206.506 16.9983C206.437 16.9295 206.368 16.8606 206.265 16.8606H203.064C202.96 16.8606 202.823 16.9295 202.788 17.0327L198.933 27.0155L195.043 17.0327C195.009 16.9295 194.905 16.8606 194.768 16.8606H191.532C191.429 16.8606 191.36 16.8951 191.291 16.9983C191.222 17.0672 191.222 17.1704 191.256 17.2737L197.04 31.4906L193.838 39.7866C193.804 39.8899 193.804 39.9587 193.873 40.062C193.941 40.1309 194.01 40.1997 194.114 40.1997H197.212C197.315 40.1997 197.453 40.1309 197.487 40.0276L206.506 17.3081C206.54 17.1704 206.54 17.0672 206.506 16.9983ZM40.4475 11.8004C38.3132 5.01899 31.8761 0.199707 24.6816 0.199707C18.5542 0.199707 13.0465 3.46993 10.1549 8.80556C4.37177 9.83826 0 15.0018 0 20.9226C0 25.7419 2.82272 30.1825 7.19449 32.179L7.5043 32.3167V28.8056C4.81928 27.1532 3.13253 24.1584 3.13253 20.9226C3.13253 16.2754 6.74699 12.2823 11.3597 11.8004L12.2203 11.6971L12.599 10.9054C14.8365 6.2238 19.4836 3.29781 24.6816 3.29781C30.8089 3.29781 36.3167 7.63516 37.728 13.6248L38.0034 14.8297L39.2083 14.8641C43.3391 14.9329 46.7126 18.3408 46.7126 22.4717C46.7126 25.3976 45.0258 27.7729 42.1687 28.9777V32.3167L42.3752 32.2479C46.9879 30.7333 49.8451 27.0155 49.8451 22.4717C49.8451 17.0328 45.7143 12.4889 40.4475 11.8004ZM18.6231 31.9037C18.1756 31.4562 17.9002 30.8021 17.9002 30.1481V19.821C17.9002 19.7522 17.969 19.6834 18.0379 19.6834H19.2083C19.346 19.6834 19.3804 19.5457 19.3115 19.4424L14.7332 14.8641C14.6644 14.7952 14.5955 14.7952 14.5267 14.8641L9.91394 19.4768C9.81067 19.5457 9.87952 19.7178 10.0172 19.7178H11.1876C11.2565 19.7178 11.3253 19.7866 11.3253 19.8555V30.389C11.3253 31.766 12.4269 32.8675 13.7694 32.8675H19.1738C19.3115 32.8675 19.346 32.7298 19.2771 32.6266L18.6231 31.9037ZM28.778 31.9037C28.3305 31.4562 28.0551 30.8021 28.0551 30.1481V22.4717C28.0551 22.4028 28.1239 22.334 28.1928 22.334H29.3632C29.5009 22.334 29.5353 22.1963 29.4664 22.093L24.8537 17.5147C24.7849 17.4458 24.716 17.4458 24.6472 17.5147L20.0688 22.093C19.9656 22.1618 20.0344 22.334 20.1721 22.334H21.3425C21.4114 22.334 21.4802 22.4028 21.4802 22.4717V30.3546C21.4802 31.7315 22.5818 32.8331 23.9587 32.8331H29.3632C29.5009 32.8331 29.5353 32.6954 29.4664 32.5921L28.778 31.9037ZM38.9329 31.9037C38.4854 31.4562 38.21 30.8021 38.21 30.1481V25.1223C38.21 25.0534 38.2788 24.9846 38.3477 24.9846H39.5181C39.6558 24.9846 39.6902 24.8469 39.6213 24.7436L35.0086 20.1653C34.9398 20.0964 34.8709 20.0964 34.8021 20.1653L30.2238 24.7436C30.1205 24.8469 30.1893 24.9846 30.327 24.9846H31.4974C31.5663 24.9846 31.6351 25.0534 31.6351 25.1223V30.3546C31.6351 31.7315 32.7367 32.8331 34.1136 32.8331H39.5181C39.6558 32.8331 39.6902 32.6954 39.6213 32.5921L38.9329 31.9037Z" fill="#475569" fill-opacity="0.5"/>
</svg>
