<svg width="80" height="80" viewBox="0 0 80 80" fill="none" xmlns="http://www.w3.org/2000/svg">
<path d="M79.5664 17.6001H78.2064C76.5248 17.6001 74.9408 18.3841 73.9184 19.7185L59.9984 37.9217L46.0784 19.7185C45.0592 18.3841 43.4736 17.6001 41.7936 17.6001H40.4336L57.9872 40.5537L40.0576 64.0001H41.4176C43.0992 64.0001 44.6832 63.2161 45.704 61.8817L60 43.1873L74.296 61.8817C75.3168 63.2161 76.9008 64.0001 78.5824 64.0001H79.9424L62.0128 40.5537L79.5664 17.6001ZM34.0624 54.7873C29.976 60.9969 21.9312 64.1793 14.24 61.3729C7.4736 58.9041 3.2 52.1777 3.2 44.9745V43.2001H22.4H40V36.5857C40 26.1777 32.2912 17.0657 21.928 16.0913C10.0368 14.9729 0 24.3361 0 36.0001V44.9169C0 53.5105 5.144 61.4993 13.2304 64.4097C23.7952 68.2113 34.9072 62.5377 38.664 52.8001H37.6432C36.1856 52.8001 34.8624 53.5697 34.0624 54.7873ZM3.2 36.0001C3.2 26.7361 10.736 19.2001 20 19.2001C29.264 19.2001 36.8 26.7361 36.8 36.0001V40.0001H3.2V36.0001Z" fill="#353C46"/>
</svg>
