<svg width="72" height="80" viewBox="0 0 72 80" fill="none" xmlns="http://www.w3.org/2000/svg">
<path d="M0.716675 0.000194658L7.13618 72.0034L35.9435 80L64.8306 71.9919L71.2569 0L0.716675 0.000194658ZM57.8663 17.0873L57.4644 21.5643L57.2878 23.5495H57.2588H35.9869H35.9561H23.4943L24.3014 32.5918H35.9561H35.9869H54.104H56.4839L56.2684 34.9635L54.1932 58.2129L54.0603 59.7039L35.9869 64.7133V64.7149L35.9464 64.7264L17.8568 59.7043L16.6193 45.8386H20.7053H25.4843L26.1131 52.8817L35.9479 55.5378L35.9561 55.5353L45.8059 52.8768L46.8303 41.4234H35.9869H35.9561H16.2249L14.0545 17.0873L13.8431 14.7185H35.9561H35.9869H58.0777L57.8663 17.0873Z" fill="#475569" fill-opacity="0.5"/>
</svg>
