<svg width="80" height="81" viewBox="0 0 80 81" fill="none" xmlns="http://www.w3.org/2000/svg">
<path d="M68 0.199707H12C5.37258 0.199707 0 5.57229 0 12.1997V68.1997C0 74.8271 5.37258 80.1997 12 80.1997H68C74.6274 80.1997 80 74.8271 80 68.1997V12.1997C80 5.57229 74.6274 0.199707 68 0.199707Z" fill="#475569" fill-opacity="0.5"/>
<path d="M50.625 58.0122C52.1875 60.6685 54.375 62.5435 57.9688 62.5435C61.0938 62.5435 63.125 60.981 63.125 58.7935C63.125 56.2935 61.0938 55.356 57.6562 53.7935L55.7812 53.0122C50.3125 50.6685 46.7188 47.856 46.7188 41.7622C46.7188 36.1372 50.9375 31.7622 57.6562 31.7622C62.5 31.7622 65.9375 33.481 68.2812 37.856L62.5 41.606C61.25 39.2622 59.8438 38.3247 57.6562 38.3247C55.4688 38.3247 54.0625 39.731 54.0625 41.606C54.0625 43.7935 55.4688 44.731 58.75 46.1372L60.625 46.9185C67.0312 49.731 70.625 52.3872 70.625 58.7935C70.625 65.5122 65.3125 69.2622 58.125 69.2622C51.0938 69.2622 46.5625 65.981 44.375 61.606L50.625 58.0122ZM24.0625 58.6372C25.3125 60.6685 26.25 62.5435 28.9062 62.5435C31.4062 62.5435 32.9688 61.606 32.9688 57.856V31.9185H40.4688V57.5435C40.4688 65.356 35.9375 68.7935 29.2188 68.7935C23.125 68.7935 19.6875 65.6685 17.9688 61.9185L24.0625 58.6372Z" fill="black"/>
</svg>
