<svg width="57" height="45" viewBox="0 0 57 45" fill="none" xmlns="http://www.w3.org/2000/svg">
<g clip-path="url(#clip0_251_32)">
<path d="M49.7724 20.3802C49.6673 20.4402 49.6373 20.5002 49.6373 20.6128C49.6373 23.2316 49.6373 25.8579 49.6373 28.4767C49.6373 28.6043 49.5923 28.6718 49.4872 28.7319C48.6543 29.2046 47.8289 29.6848 47.0035 30.1576C44.4522 31.6283 41.9085 33.099 39.3572 34.5698C38.0515 35.3202 36.7534 36.0705 35.4477 36.8284C33.3542 35.6203 31.2681 34.4122 29.1746 33.2041C28.9045 33.0465 28.6268 32.9115 28.3717 32.7239C28.8444 32.4537 29.3172 32.1761 29.7824 31.906C33.9845 29.4822 38.1866 27.051 42.3962 24.6348C42.5088 24.5673 42.5388 24.4997 42.5388 24.3722C42.5388 16.3207 42.5388 8.26913 42.5388 0.210105C42.5388 0.157579 42.5388 0.0975488 42.5388 0.0450225C42.5388 0.0225113 42.5388 0.00750375 42.5238 0C42.5012 0 42.4862 0.0150075 42.4787 0.0375188C42.4187 0.0675338 42.3587 0.0975488 42.2986 0.135068C40.085 1.41071 37.8639 2.69385 35.6503 3.96948C31.4182 6.4082 27.1936 8.84692 22.9615 11.2931C22.4062 11.6158 21.8509 11.9385 21.3032 12.2611C21.2506 12.2611 21.2131 12.2236 21.1681 12.2011C18.3692 10.5878 15.5703 8.97449 12.7789 7.36118C8.56178 4.93747 4.35218 2.51376 0.142571 0.0825413C0.105053 0.06003 0.0675338 0.0150075 0 0.0375188V0.150075C0 8.24662 0 16.3432 0 24.4322C0 24.5298 0.030015 24.5748 0.112556 24.6273C2.3937 25.9405 4.67484 27.2611 6.95598 28.5743C6.9935 28.5968 7.03102 28.6343 7.09105 28.6268V12.3137C7.14357 12.3137 7.17359 12.3362 7.2036 12.3512C7.57879 12.5688 7.94647 12.7789 8.32166 12.9965C11.2706 14.6998 14.2121 16.3957 17.1611 18.099C18.5118 18.8794 19.8699 19.6673 21.2206 20.4552C21.2656 20.4777 21.2731 20.4552 21.3032 20.4402C21.3782 20.4402 21.4307 20.3877 21.4907 20.3502C23.7644 19.037 26.0455 17.7239 28.3192 16.4107C29.94 15.4802 31.5533 14.5423 33.1741 13.6118C33.917 13.1841 34.6598 12.7564 35.4027 12.3287C35.4252 12.3062 35.4477 12.2836 35.4627 12.3287C35.4627 12.3587 35.4627 12.3812 35.4627 12.4112C35.4627 15.06 35.4627 17.7089 35.4627 20.3577C35.4627 20.4627 35.4102 20.5002 35.3352 20.5453C32.8889 21.956 30.4427 23.3742 27.989 24.7849C25.7904 26.053 23.5918 27.3212 21.4007 28.5893C21.3632 28.6118 21.3107 28.6193 21.2956 28.6718C21.2656 28.7094 21.2806 28.7619 21.2806 28.8069C21.2806 31.4482 21.2806 34.082 21.2806 36.7234C21.2806 36.8134 21.3032 36.8659 21.3857 36.911C22.2786 37.4212 23.1716 37.939 24.057 38.4492C27.7939 40.6028 31.5308 42.7639 35.2676 44.9175C35.3277 44.955 35.3877 45.0075 35.4627 45.015C35.4927 45.015 35.5078 45.015 35.5228 44.9925C35.5528 44.9775 35.5903 44.9625 35.6203 44.9475C37.1061 44.0845 38.5993 43.2291 40.085 42.3662C43.7094 40.2726 47.3337 38.1866 50.9505 36.093C52.8339 35.005 54.7099 33.9245 56.5933 32.8364C56.6383 32.8139 56.6758 32.7689 56.7284 32.7764V16.4107C56.6683 16.4032 56.6233 16.4482 56.5783 16.4707C54.3122 17.7764 52.0385 19.0895 49.7724 20.3952V20.3802Z" fill="#353C46"/>
<path d="M56.5257 0.12006C54.2746 1.41821 52.0235 2.71636 49.7648 4.01451C49.6673 4.06703 49.6298 4.12706 49.6298 4.23962C49.6298 6.85843 49.6298 9.47724 49.6298 12.1036C49.6298 12.1486 49.6298 12.1936 49.6298 12.2386C49.6298 12.2386 49.6298 12.2536 49.6298 12.2611C49.6373 12.2611 49.6448 12.2536 49.6523 12.2461C49.6898 12.2236 49.7348 12.2086 49.7723 12.1861C51.6633 11.0905 53.5617 10.0025 55.4527 8.90695C55.8654 8.66683 56.2856 8.43422 56.6983 8.1941V0C56.6308 0.0375188 56.5632 0.0825413 56.4957 0.12006H56.5257Z" fill="#353C46"/>
</g>
<defs>
<clipPath id="clip0_251_32">
<rect width="56.7284" height="45" fill="white"/>
</clipPath>
</defs>
</svg>
