<svg width="50" height="50" viewBox="0 0 50 50" fill="none" xmlns="http://www.w3.org/2000/svg">
<g clip-path="url(#clip0_252_11)">
<path d="M23.415 0H26.685C26.7225 0.218832 26.8976 0.181318 27.0414 0.181318C27.7104 0.162561 28.3606 0.281355 29.0109 0.387645C31.1554 0.737777 33.225 1.36926 35.2195 2.25084C37.9267 3.44504 40.3276 5.08941 42.4597 7.12142C43.7226 8.32812 44.8231 9.69113 45.7922 11.1479C47.8617 14.2553 49.1997 17.6441 49.7624 21.3393C49.8062 21.6269 49.6436 22.0145 50.0125 22.2271V27.7604C49.6874 27.8667 49.8562 28.1481 49.8312 28.3419C49.4685 30.724 48.8246 33.0186 47.8492 35.2195C46.6425 37.9392 44.9919 40.3526 42.9348 42.4909C41.7406 43.7289 40.3964 44.798 38.9709 45.7672C37.2077 46.9614 35.3195 47.893 33.3187 48.6057C31.7994 49.1434 30.2363 49.5311 28.6295 49.7374C28.3544 49.7749 27.9855 49.6436 27.7854 49.9875H22.3396C22.3209 49.8312 22.2021 49.8187 22.077 49.8062C19.5761 49.5311 17.1877 48.8371 14.8868 47.8242C12.067 46.58 9.57859 44.8543 7.39652 42.6973C6.25234 41.5656 5.23946 40.3089 4.34538 38.9646C1.90696 35.3382 0.48143 31.3618 0.181318 26.9914C0.175066 26.8538 0.18757 26.71 0 26.6788V23.4088C0.218832 23.3713 0.181318 23.1962 0.181318 23.0524C0.162561 22.3834 0.281355 21.7331 0.387645 21.0829C0.737777 18.9384 1.36926 16.8688 2.25084 14.8743C3.47005 12.1108 5.15193 9.66612 7.25272 7.50907C8.42191 6.30862 9.7224 5.25822 11.1167 4.32662C14.7555 1.90697 18.732 0.48143 23.1024 0.181318C23.24 0.175066 23.3838 0.18757 23.415 0ZM15.8684 33.6751C16.1373 34.119 16.4374 34.5317 16.7063 34.763C16.625 34.3941 16.3249 33.9627 15.981 33.5501C15.9372 33.4688 15.8997 33.3875 15.8497 33.3125C13.3675 29.6111 10.8853 25.916 8.40315 22.2208C7.86545 21.4205 7.3215 20.6202 6.7963 19.8137C6.56496 19.4573 6.22733 19.6386 5.93347 19.6199C5.7459 19.6074 5.81468 19.7949 5.81468 19.9012C5.81468 23.3212 5.81468 26.735 5.81468 30.1551C5.81468 30.3301 5.83344 30.4177 6.05227 30.4364C6.3899 30.4614 6.50869 30.3739 6.50869 29.9987C6.50869 27.0226 6.5212 24.0403 6.53995 21.0641C6.53995 20.9141 6.48368 20.739 6.61498 20.5765C8.17181 22.8398 9.7224 25.0719 11.2542 27.3165C12.736 29.4861 14.2366 31.6369 15.881 33.6876L15.8684 33.6751ZM14.8993 25.0406C14.8993 26.7163 14.8993 28.3981 14.8993 30.0738C14.8993 30.2551 14.8618 30.4239 15.1557 30.4239C17.4378 30.4114 19.7199 30.4177 22.0083 30.4239C22.1708 30.4239 22.2458 30.3989 22.2583 30.2051C22.2834 29.8987 22.1771 29.8362 21.8832 29.8362C19.92 29.8487 17.9505 29.8362 15.9872 29.8487C15.6746 29.8487 15.5808 29.7737 15.5808 29.4548C15.5996 28.1418 15.5996 26.8226 15.5808 25.5096C15.5808 25.1594 15.6809 25.0907 16.0123 25.0907C17.7942 25.1094 19.5823 25.0969 21.3643 25.0969C21.5768 25.0969 21.8082 25.1719 21.8019 24.7843C21.7957 24.4092 21.5581 24.5154 21.3768 24.5154C19.5636 24.5154 17.7504 24.5092 15.931 24.5154C15.6496 24.5154 15.5746 24.4404 15.5808 24.1653C15.5996 22.9836 15.5996 21.8082 15.5808 20.6265C15.5808 20.2826 15.6559 20.1701 16.0248 20.1701C17.963 20.1888 19.895 20.1763 21.8332 20.1826C22.052 20.1826 22.2021 20.1826 22.2021 19.8887C22.2021 19.5698 22.027 19.6074 21.8269 19.6074C19.6511 19.6074 17.469 19.6136 15.2932 19.6011C14.9681 19.6011 14.8931 19.7011 14.8993 20.0075C14.9118 21.6831 14.9056 23.365 14.9056 25.0406H14.8993ZM31.468 30.3739C30.2113 28.642 28.9796 26.9351 27.7291 25.2345C27.5291 24.9656 27.5103 24.7905 27.7104 24.4967C29.7049 21.6519 31.6744 18.7945 33.6439 15.9372C33.7251 15.8247 33.894 15.7184 33.8002 15.4808C33.6814 15.6184 33.5813 15.7309 33.4876 15.8434C31.3493 18.5007 29.286 21.2205 27.304 23.9965C27.0914 24.2904 26.9851 24.3216 26.76 23.9965C25.8347 22.671 24.8593 21.383 23.9465 20.0513C23.6651 19.6386 23.3588 19.5073 22.8961 19.6324C22.9086 19.7762 23.0211 19.8637 23.0962 19.97C24.1966 21.5018 25.2907 23.0399 26.4099 24.5592C26.5725 24.778 26.5912 24.9156 26.4099 25.1407C26.016 25.6346 25.6534 26.1598 25.2845 26.6725C24.3904 27.898 23.4963 29.1234 22.596 30.3551C23.1149 30.5114 23.4213 30.3489 23.7151 29.9237C24.7093 28.4982 25.7534 27.1164 26.7663 25.7034C26.9539 25.4345 27.0476 25.347 27.279 25.6784C28.2856 27.1102 29.3485 28.5044 30.3364 29.9487C30.6427 30.3926 30.9679 30.4739 31.4618 30.3614L31.468 30.3739ZM35.5758 25.2845C35.5758 26.8851 35.5758 28.4919 35.5758 30.0925C35.5758 30.3489 35.6446 30.4114 35.901 30.4302C36.2636 30.4552 36.2761 30.2801 36.2698 30.005C36.2636 26.8913 36.2699 23.7777 36.2573 20.6577C36.2573 20.2951 36.3261 20.1638 36.72 20.1701C37.7016 20.2013 38.6833 20.1763 39.6711 20.1826C39.8837 20.1826 40.0838 20.2263 40.0775 19.8825C40.0775 19.5136 39.8399 19.6074 39.6524 19.6074C37.1702 19.6074 34.6943 19.6074 32.2121 19.6074C32.012 19.6074 31.7557 19.5073 31.7619 19.9075C31.7744 20.3201 32.0495 20.1763 32.2371 20.1826C33.2187 20.1951 34.2003 20.2013 35.1882 20.1826C35.5008 20.1763 35.5946 20.2576 35.5883 20.5765C35.5696 22.1521 35.5821 23.7214 35.5821 25.297L35.5758 25.2845ZM43.4725 29.6861C43.9852 29.6861 44.3354 29.4423 44.3666 29.0359C44.4041 28.542 44.054 28.3981 43.6664 28.2981C43.5351 28.2668 43.3975 28.2418 43.2725 28.1981C43.1287 28.1481 42.9911 28.0668 43.0161 27.8792C43.0349 27.6979 43.1724 27.6229 43.3225 27.5978C43.5726 27.5541 43.7977 27.5916 43.9477 27.8417C44.0165 27.9605 44.1666 27.973 44.2603 27.898C44.3604 27.8167 44.2791 27.7041 44.2228 27.6166C44.0353 27.2977 43.5038 27.1539 43.0849 27.3165C42.8098 27.4228 42.6347 27.6104 42.6285 27.923C42.616 28.2418 42.7785 28.4357 43.0661 28.5357C43.2662 28.6045 43.4725 28.6357 43.6726 28.7045C43.8352 28.7608 43.9915 28.8421 43.9727 29.0484C43.954 29.2485 43.7914 29.3235 43.6289 29.3548C43.36 29.411 43.1224 29.3548 42.9599 29.1047C42.8723 28.9796 42.7223 28.9921 42.6347 29.0484C42.4909 29.1484 42.6285 29.2672 42.6848 29.3548C42.8723 29.6299 43.1599 29.7049 43.4788 29.6924L43.4725 29.6861ZM42.0908 28.2668C42.0908 28.2668 42.097 28.2668 42.1033 28.2668C42.1033 28.0418 42.1033 27.8167 42.1033 27.5916C42.1033 27.4665 42.1533 27.3102 41.9282 27.304C41.6656 27.2915 41.7407 27.4853 41.7344 27.6166C41.7281 28.023 41.7344 28.4294 41.7344 28.8358C41.7344 29.0359 41.7281 29.2422 41.4968 29.3172C41.3092 29.3798 41.1342 29.336 41.0404 29.1359C40.9529 28.9609 40.7965 29.0046 40.6965 29.0734C40.5965 29.1422 40.6903 29.2672 40.7403 29.3548C40.9278 29.6861 41.2342 29.7236 41.5656 29.6736C41.897 29.6236 42.0595 29.3923 42.0908 29.0859C42.122 28.8171 42.0908 28.542 42.0908 28.2731V28.2668ZM40.2338 29.436C40.2338 29.2985 40.1838 29.1984 40.0338 29.1922C39.8962 29.1859 39.7899 29.2422 39.7712 29.3798C39.7524 29.5361 39.8337 29.6486 39.9962 29.6549C40.1338 29.6549 40.2213 29.5798 40.2338 29.436Z" fill="#353C46"/>
<path d="M14.8993 25.0406C14.8993 23.365 14.9055 21.6831 14.893 20.0075C14.893 19.6949 14.9618 19.6011 15.2869 19.6011C17.4627 19.6136 19.6448 19.6073 21.8206 19.6073C22.0207 19.6073 22.1958 19.5761 22.1958 19.8887C22.1958 20.1888 22.0457 20.1825 21.8269 20.1825C19.8887 20.1825 17.9567 20.1888 16.0185 20.17C15.6496 20.17 15.5683 20.2826 15.5745 20.6265C15.5933 21.8082 15.5933 22.9836 15.5745 24.1653C15.5745 24.4466 15.6433 24.5217 15.9247 24.5154C17.7378 24.5029 19.551 24.5092 21.3705 24.5154C21.558 24.5154 21.7894 24.4091 21.7956 24.7843C21.8019 25.1719 21.5705 25.0969 21.358 25.0969C19.576 25.0969 17.7879 25.1094 16.0059 25.0906C15.6746 25.0906 15.5683 25.1594 15.5745 25.5095C15.5995 26.8225 15.5933 28.1418 15.5745 29.4548C15.5745 29.7736 15.6621 29.8549 15.9809 29.8487C17.9442 29.8362 19.9137 29.8487 21.8769 29.8362C22.1708 29.8362 22.2771 29.9049 22.252 30.2051C22.2333 30.3926 22.1645 30.4239 22.0019 30.4239C19.7198 30.4239 17.4377 30.4176 15.1494 30.4239C14.8555 30.4239 14.893 30.2613 14.893 30.0738C14.893 28.3981 14.893 26.7162 14.893 25.0406H14.8993Z" fill="#090909"/>
<path d="M31.468 30.374C30.9741 30.4928 30.6427 30.4052 30.3426 29.9613C29.3485 28.517 28.2918 27.1228 27.2852 25.691C27.0538 25.3596 26.9601 25.4471 26.7725 25.716C25.7596 27.129 24.7155 28.5108 23.7213 29.9363C23.4275 30.3552 23.1211 30.524 22.6022 30.3677C23.5025 29.1298 24.3966 27.9043 25.2907 26.6851C25.6658 26.1724 26.0222 25.6472 26.4161 25.1533C26.5912 24.9344 26.5724 24.7969 26.4161 24.5718C25.3032 23.0462 24.2028 21.5144 23.1024 19.9826C23.0273 19.8763 22.9148 19.7888 22.9023 19.645C23.365 19.5199 23.6651 19.645 23.9527 20.0639C24.8655 21.3956 25.8409 22.6836 26.7662 24.0091C26.9913 24.3342 27.0976 24.303 27.3102 24.0091C29.2984 21.2331 31.3555 18.5133 33.4938 15.856C33.5875 15.7435 33.6876 15.631 33.8064 15.4934C33.9002 15.731 33.7313 15.8373 33.6501 15.9498C31.6806 18.8072 29.7048 21.6645 27.7166 24.5093C27.5103 24.8031 27.5353 24.9782 27.7353 25.2471C28.9858 26.9477 30.2175 28.6546 31.4742 30.3865L31.468 30.374Z" fill="#090909"/>
<path d="M15.8685 33.6752C14.2241 31.6244 12.7173 29.4736 11.2418 27.304C9.70994 25.0594 8.15936 22.8273 6.60253 20.564C6.47123 20.7328 6.5275 20.9016 6.5275 21.0517C6.50874 24.0278 6.48999 27.0102 6.49624 29.9863C6.49624 30.3552 6.3837 30.4427 6.03982 30.4239C5.82098 30.4114 5.80223 30.3239 5.80223 30.1426C5.80223 26.7225 5.80223 23.3088 5.80223 19.8887C5.80223 19.7824 5.73345 19.5949 5.92102 19.6074C6.21488 19.6261 6.55251 19.4448 6.78385 19.8012C7.3153 20.6078 7.853 21.4081 8.3907 22.2084C10.8729 25.9035 13.3551 29.6049 15.8372 33.3C15.8873 33.375 15.9248 33.4563 15.9685 33.5376C15.931 33.5814 15.8873 33.6189 15.8497 33.6626L15.8685 33.6752Z" fill="#0B0B0B"/>
<path d="M35.5759 25.2845C35.5759 23.7089 35.5696 22.1396 35.5821 20.564C35.5821 20.2451 35.4946 20.1638 35.182 20.1701C34.2004 20.1889 33.2187 20.1826 32.2309 20.1701C32.0433 20.1701 31.7682 20.3077 31.7557 19.895C31.7432 19.4948 31.9995 19.6011 32.2059 19.5949C34.688 19.5949 37.164 19.5949 39.6461 19.5949C39.8337 19.5949 40.0713 19.5011 40.0713 19.87C40.0713 20.2201 39.8775 20.1701 39.6649 20.1701C38.6833 20.1701 37.6954 20.1889 36.7138 20.1576C36.3199 20.1451 36.2449 20.2764 36.2511 20.6453C36.2636 23.7589 36.2511 26.8726 36.2636 29.9925C36.2636 30.2739 36.2511 30.4427 35.8947 30.4177C35.6384 30.3989 35.5696 30.3364 35.5696 30.0801C35.5821 28.4795 35.5696 26.8726 35.5696 25.272L35.5759 25.2845Z" fill="#0C0C0C"/>
<path d="M43.4725 29.6862C43.1536 29.6987 42.866 29.6237 42.6785 29.3486C42.6222 29.2673 42.4846 29.1422 42.6284 29.0422C42.716 28.9797 42.866 28.9734 42.9536 29.0985C43.1224 29.3423 43.3537 29.4048 43.6226 29.3486C43.7914 29.3111 43.9477 29.2423 43.9664 29.0422C43.9852 28.8359 43.8289 28.7483 43.6663 28.6983C43.4663 28.6295 43.2599 28.5983 43.0599 28.5295C42.7723 28.4357 42.6159 28.2356 42.6222 27.9168C42.6347 27.6042 42.8098 27.4166 43.0786 27.3103C43.4975 27.1477 44.029 27.2915 44.2165 27.6104C44.2728 27.6979 44.3541 27.8105 44.2541 27.8918C44.154 27.973 44.0102 27.9605 43.9414 27.8355C43.7914 27.5792 43.5663 27.5479 43.3162 27.5917C43.1599 27.6167 43.0286 27.6917 43.0098 27.873C42.9848 28.0668 43.1224 28.1419 43.2662 28.1919C43.3912 28.2356 43.5288 28.2607 43.6601 28.2919C44.0477 28.392 44.3979 28.5358 44.3603 29.0297C44.3291 29.4361 43.9852 29.6737 43.4663 29.6799L43.4725 29.6862Z" fill="#121212"/>
<path d="M42.0908 28.2732C42.0908 28.5421 42.1158 28.8172 42.0908 29.086C42.0595 29.3924 41.897 29.63 41.5656 29.6737C41.2342 29.7238 40.9279 29.6863 40.7403 29.3549C40.6903 29.2673 40.6027 29.1423 40.6965 29.0735C40.7903 29.011 40.9466 28.961 41.0404 29.136C41.1405 29.3299 41.3093 29.3736 41.4968 29.3174C41.7282 29.2423 41.7344 29.036 41.7344 28.8359C41.7344 28.4295 41.7344 28.0231 41.7344 27.6167C41.7344 27.4854 41.6594 27.2979 41.9282 27.3041C42.1533 27.3104 42.0971 27.4729 42.1033 27.5917C42.1096 27.8168 42.1033 28.0419 42.1033 28.267C42.1033 28.267 42.0971 28.267 42.0908 28.267V28.2732Z" fill="#0F0F0F"/>
<path d="M15.8684 33.6751C15.9059 33.6313 15.9497 33.5938 15.9872 33.55C16.3311 33.9565 16.6312 34.3941 16.7125 34.763C16.4436 34.5317 16.1373 34.119 15.8747 33.6751H15.8684Z" fill="#1E1E1E"/>
<path d="M40.2275 29.4423C40.215 29.5861 40.1275 29.6674 39.9899 29.6611C39.8274 29.6611 39.7461 29.5423 39.7649 29.386C39.7774 29.2422 39.8899 29.186 40.0275 29.1985C40.1838 29.211 40.2338 29.3048 40.2338 29.4423H40.2275Z" fill="#191919"/>
</g>
<defs>
<clipPath id="clip0_252_11">
<rect width="50" height="50" fill="white"/>
</clipPath>
</defs>
</svg>
