<svg width="95" height="60" viewBox="0 0 95 60" fill="none" xmlns="http://www.w3.org/2000/svg">
<path d="M64.9477 0C64.4677 0 64.0246 0.387692 64.0246 0.923077V17.6862L60.2215 15.4708L59.4462 15.2677L58.6708 15.4708L49.5323 20.7877C49.0523 21.0646 48.7569 21.5631 48.7569 22.1169V32.7692C48.7569 33.3231 49.0523 33.8215 49.5323 34.0985L58.6708 39.4154L59.4462 39.6185L60.2215 39.4154L69.36 34.0985C69.84 33.8215 70.1354 33.3231 70.1354 32.7692V27.4338V22.0985V3.72923C70.1354 3.19385 69.84 2.69538 69.3785 2.41846L65.4092 0.110769L64.9477 0ZM35.0585 15.2492L34.2831 15.4523L25.1446 20.7692C24.6646 21.0462 24.3692 21.5446 24.3692 22.0985V32.7692C24.3692 33.3231 24.6646 33.8215 25.1446 34.0985L34.2831 39.4154C34.7631 39.6923 35.3538 39.6923 35.8338 39.4154L44.9723 34.0985C45.4523 33.8215 45.7477 33.3231 45.7477 32.7692V22.1169C45.7477 21.5631 45.4523 21.0646 44.9723 20.7877L35.8338 15.4708L35.0585 15.2492ZM83.8523 15.2492L83.0769 15.4523L73.9385 20.7692C73.4585 21.0462 73.1631 21.5446 73.1631 22.0985V32.7692C73.1631 33.3231 73.4585 33.8215 73.9385 34.0985L82.8 39.4523C83.28 39.7477 83.8708 39.7477 84.3508 39.4708L88.7077 36.9415C89.1508 36.6831 89.1692 36.0185 88.7077 35.76L79.2738 30.2031V24.7385L83.8523 22.08L88.4308 24.7385V28.5415C88.4308 29.0585 88.8554 29.1323 89.1508 28.9662C90.2954 28.2831 93.7846 26.2708 93.7846 26.2708C94.2462 25.9938 94.5415 25.4954 94.5415 24.96V22.1169C94.5415 21.5631 94.2462 21.0646 93.7662 20.7877L84.6277 15.4708L83.8523 15.2492ZM10.6708 15.2492L9.89538 15.4523L0.775385 20.7877C0.295385 21.0646 0 21.5815 0 22.1169V35.7231C0 36.3877 0.72 36.7938 1.29231 36.4615L5.33538 34.0985C5.79692 33.8215 6.09231 33.3231 6.09231 32.7877V24.7385L10.6708 22.0615L15.2492 24.7385V32.7877C15.2492 33.3231 15.5446 33.8215 16.0062 34.0985L20.0492 36.4615C20.6215 36.7938 21.3415 36.3877 21.3415 35.7231V22.1169C21.3415 21.5631 21.0462 21.0646 20.5662 20.7877L11.4462 15.4708L10.6708 15.2492ZM59.4646 22.0615L64.0431 24.7385V27.4523V30.1662L59.4646 32.8431L54.8862 30.1662V24.7385L59.4646 22.0615ZM83.8523 24.4062L81.2308 25.9385V28.9846L83.8523 30.4985L86.4738 28.9846V25.9385L83.8523 24.4062ZM46.9846 36.5908C46.6708 36.5908 46.3569 36.6646 46.08 36.8308L37.4954 41.7785C36.9231 42.0923 36.5908 42.7015 36.5908 43.3477V53.2431C36.5908 53.8892 36.9415 54.48 37.4954 54.8123L39.7477 56.1046C40.8369 56.64 41.2246 56.64 41.7231 56.64C43.3477 56.64 44.2523 55.68 44.2523 53.9631V44.1785L43.9938 43.92H42.9046L42.6462 44.1785V53.9631C42.6462 54.7015 41.8708 55.4585 40.5785 54.8308L38.2338 53.4831L38.1046 53.2615V43.3662L38.2338 43.1262L46.8185 38.1785H47.0954L55.68 43.1262L55.8092 43.3662V53.2615L55.68 53.5015L47.1138 58.4308H46.8369L44.64 57.12L44.4369 57.1015C43.8277 57.4523 43.7169 57.5077 43.1446 57.6923C42.9969 57.7477 42.7938 57.8215 43.2185 58.0615L46.0615 59.76C46.3385 59.9077 46.6523 60 46.9662 60C47.2985 60 47.6123 59.9077 47.8523 59.7415L56.4369 54.7754C57.0092 54.4615 57.3415 53.8523 57.3415 53.2062V43.3108C57.3415 42.6646 56.9908 42.0738 56.4369 41.7415L47.8523 36.7938C47.5938 36.6646 47.2985 36.5908 46.9846 36.5908ZM60.3508 41.1508C59.4831 41.1508 58.7077 41.8523 58.7077 42.7938C58.7077 43.6985 59.4462 44.4369 60.3508 44.4369C61.2554 44.4369 61.9938 43.6985 61.9938 42.7938C61.9938 41.8523 61.2369 41.1323 60.3508 41.1508ZM60.3323 41.4092C61.1077 41.4092 61.7354 42.0185 61.7354 42.7938C61.7354 43.5508 61.1077 44.1785 60.3323 44.1969C59.5754 44.1969 58.9477 43.5692 58.9477 42.7938C58.9662 42.0185 59.5754 41.4092 60.3323 41.4092ZM59.7231 41.8523V43.6985H60.0738V42.96H60.4062L60.6092 43.1262L60.6831 43.7169H61.0708L60.9785 43.2185L60.6646 42.7938C60.7938 42.7385 61.0154 42.6831 61.0154 42.3323C61.0154 41.8338 60.5908 41.8523 60.3692 41.8523H59.7231ZM60.0923 42.1662H60.3877L60.6646 42.4246L60.3877 42.7015H60.1108V42.1662H60.0923ZM49.2738 43.6615C46.8185 43.6615 45.3785 44.7138 45.3785 46.4308C45.3785 48.3138 46.8369 48.8123 49.1815 49.0523C51.9877 49.3292 52.2092 49.7354 52.2092 50.2892C52.2092 51.2492 51.4338 51.6554 49.6246 51.6554C47.3538 51.6554 46.8554 51.1015 46.6892 49.9569L46.4308 49.7538H45.3231L45.0646 50.0123C45.0646 51.4523 45.8585 53.1692 49.6062 53.1692C52.3569 53.1692 53.9262 52.0985 53.9262 50.2338C53.9262 48.3877 52.6708 47.8892 50.0308 47.5385C47.3538 47.1877 47.0954 47.0031 47.0954 46.3754C47.0954 45.8585 47.3169 45.1754 49.2923 45.1754C51.0646 45.1754 51.7108 45.5631 51.9877 46.7446L52.2277 46.9292H53.3354L53.52 46.8554L53.5754 46.6708C53.3723 44.6215 52.0246 43.6615 49.2738 43.6615Z" fill="#475569" fill-opacity="0.5"/>
</svg>
