<svg width="85" height="81" viewBox="0 0 85 81" fill="none" xmlns="http://www.w3.org/2000/svg">
<path d="M58.4568 56.6072C61.433 56.3106 63.7393 53.8177 63.7393 50.7882C63.7393 50.6682 63.736 50.5482 63.7293 50.4282V50.4449C63.5727 47.2354 60.9497 44.6925 57.7269 44.6592H57.5103C54.2842 44.7792 51.7146 47.4221 51.7146 50.6649C51.7146 50.7382 51.7146 50.8115 51.7179 50.8882V50.8782C51.8046 52.4546 52.4512 53.8677 53.4577 54.9342L53.4543 54.9308C49.4983 62.3096 43.4526 68.1286 36.1105 71.6981L35.8805 71.798C31.9079 73.9977 27.1686 75.2908 22.1261 75.2908C20.8497 75.2908 19.5899 75.2075 18.3601 75.0475L18.5067 75.0642C13.9708 74.6276 10.0648 72.2513 7.5852 68.7852L7.55521 68.7385C5.7655 66.2223 4.69568 63.0895 4.69568 59.7034C4.69568 56.9138 5.42223 54.2943 6.69868 52.0213L6.65869 52.1013C8.48172 48.6485 10.968 45.7757 13.9708 43.5627L14.0408 43.516C13.4709 42.0063 12.961 40.1866 12.601 38.3169L12.5644 38.0969C-3.04305 49.2584 -1.45997 64.5259 3.27925 71.7414C7.4219 77.0272 13.8075 80.3933 20.9797 80.3933C21.3063 80.3933 21.6296 80.3866 21.9528 80.3733H21.9062C22.0228 80.3766 22.1628 80.3766 22.3028 80.3766C24.4591 80.3766 26.5554 80.1267 28.5684 79.6567L28.3818 79.6934C41.7396 77.2471 52.6778 68.6386 58.2902 56.9838L58.3968 56.7372L58.4568 56.6072Z" fill="#475569" fill-opacity="0.5"/>
<path d="M77.2537 43.4558C69.2451 34.324 57.557 28.5916 44.5258 28.5916C44.1292 28.5916 43.7293 28.5983 43.336 28.6083H43.396H41.6029C40.6598 26.7186 38.7367 25.4421 36.5171 25.4421C36.4505 25.4421 36.3871 25.4421 36.3205 25.4455H36.3305H36.2005C32.981 25.4921 30.3881 28.1117 30.3881 31.3378C30.3881 31.4345 30.3915 31.5278 30.3948 31.6211V31.6078C30.5448 34.8173 33.1677 37.3668 36.3938 37.4002H36.6571C39.0367 37.3069 41.0464 35.8271 41.9129 33.7541L41.9262 33.7141H43.8759C52.3878 33.7241 60.2865 36.337 66.8188 40.8063L66.6788 40.7163C71.7813 43.9824 75.7207 48.675 77.9836 54.2307L78.0536 54.424C78.9201 56.2304 79.4234 58.35 79.4234 60.5863C79.4234 62.9526 78.8601 65.1856 77.857 67.1586L77.8936 67.0753C75.3041 72.3611 69.9649 75.9338 63.7926 75.9338C63.566 75.9338 63.3427 75.9305 63.1194 75.9205H63.1527C59.3634 75.8405 55.7873 75.0073 52.5445 73.5642L52.7178 73.6342C51.4547 74.6874 49.3483 76.4204 47.8186 77.4769C51.8646 79.4632 56.6105 80.673 61.6263 80.7897H61.6663C61.8629 80.7963 62.0929 80.7997 62.3229 80.7997C70.8281 80.7997 78.2769 76.2838 82.4062 69.5215L82.4662 69.4182C83.606 66.7153 84.2659 63.5759 84.2659 60.2797C84.2659 53.6808 81.613 47.7018 77.3171 43.3525L77.3204 43.3559L77.2704 43.4625L77.2537 43.4558Z" fill="#475569" fill-opacity="0.5"/>
<path d="M22.8094 58.5103C22.956 61.7231 25.5856 64.2794 28.8184 64.3027H29.0317C32.2578 64.1927 34.8341 61.5465 34.8341 58.3037C34.8341 55.0042 32.1712 52.3247 28.875 52.3013H28.6517C28.6184 52.298 28.5784 52.298 28.5418 52.298C28.2985 52.298 28.0652 52.3347 27.8452 52.408L27.8619 52.4046C24.2958 46.6023 22.1861 39.5734 22.1861 32.0513C22.1861 30.8382 22.2395 29.6384 22.3494 28.4553L22.3394 28.6086C22.6427 22.2563 24.9757 16.5006 28.6951 11.9213L28.6551 11.9746C31.9579 8.40522 36.6104 6.13226 41.7996 5.96562H41.8296C53.201 5.75232 57.9436 19.9233 58.3102 25.5557L63.5826 27.1321C62.3562 9.86498 51.618 0.799805 41.3496 0.799805C30.9114 1.34305 22.2495 8.36523 19.2799 17.9003L19.2333 18.0736C17.7735 22.2796 16.927 27.1255 16.927 32.168C16.927 40.7932 19.3966 48.8419 23.6626 55.6441L23.5559 55.4608C23.0793 56.1807 22.796 57.0639 22.796 58.0137C22.796 58.1904 22.806 58.3637 22.826 58.5336L22.8227 58.5136L22.8094 58.5103Z" fill="#475569" fill-opacity="0.5"/>
</svg>
