<svg width="150" height="43" viewBox="0 0 150 43" fill="none" xmlns="http://www.w3.org/2000/svg">
<path fill-rule="evenodd" clip-rule="evenodd" d="M139.823 17.8743C139.688 17.9013 139.552 18.199 139.552 18.3612C139.525 19.4441 139.498 22.3132 139.498 24.2619C139.498 24.3162 139.579 24.4244 139.66 24.4244C140.066 24.4514 141.041 24.4784 141.88 24.4784C143.044 24.4784 143.72 24.3162 144.1 24.154C145.074 23.6665 145.534 22.6109 145.534 21.4468C145.534 18.8217 143.693 17.8201 140.959 17.8201C140.77 17.7931 140.229 17.7931 139.823 17.8743ZM146.806 29.9732C146.806 27.2935 144.83 25.8047 141.257 25.8047C141.095 25.8047 139.958 25.7777 139.687 25.8317C139.606 25.859 139.498 25.9132 139.498 25.9945C139.498 27.9159 139.471 30.9748 139.552 32.1656C139.606 32.6798 139.985 33.4107 140.446 33.6272C140.932 33.8979 142.042 33.9519 142.8 33.9519C144.938 33.9519 146.806 32.761 146.806 29.9732ZM134.301 16.3858C134.572 16.3858 135.384 16.4667 137.468 16.4667C139.444 16.4667 141.014 16.4128 142.935 16.4128C145.29 16.4128 148.538 17.2516 148.538 20.7704C148.538 22.5027 147.32 23.8833 145.723 24.5599C145.642 24.5869 145.642 24.6409 145.723 24.6679C147.997 25.2366 150 26.6439 150 29.2962C150 31.8949 148.376 33.5459 146.021 34.5745C144.586 35.1969 142.8 35.4134 140.987 35.4134C139.606 35.4134 135.898 35.2512 133.841 35.3055C133.625 35.2239 134.031 34.2496 134.22 34.0874C134.707 34.0601 135.086 34.0331 135.6 33.8706C136.331 33.6814 136.412 33.4647 136.521 32.3551C136.575 31.4077 136.575 28.0511 136.575 25.6695C136.575 22.3944 136.602 20.175 136.575 19.0924C136.548 18.2536 136.25 17.9825 135.655 17.8201C135.194 17.7391 134.437 17.6306 133.814 17.5496C133.678 17.4141 134.139 16.4937 134.301 16.3858ZM118.683 33.2212C119.333 33.7351 120.605 33.9516 121.742 33.9516C123.204 33.9516 124.665 33.6814 126.073 32.4088C127.508 31.11 128.509 29.107 128.509 25.9132C128.509 22.8544 127.345 20.3642 124.963 18.9029C123.61 18.0635 121.878 17.7121 119.875 17.7121C119.279 17.7121 118.711 17.7391 118.359 17.9013C118.278 17.9556 118.088 18.199 118.088 18.3342C118.034 18.8757 118.034 23.0438 118.034 25.48C118.034 27.9972 118.034 31.516 118.088 31.9219C118.088 32.3281 118.278 32.9505 118.684 33.2212H118.683ZM112.539 16.3855C113.054 16.3855 115.029 16.4667 115.977 16.4667C117.682 16.4667 118.9 16.3858 122.121 16.3858C124.828 16.3858 127.101 17.1164 128.725 18.4967C130.701 20.202 131.73 22.5569 131.73 25.4258C131.73 29.513 129.862 31.8679 127.994 33.2212C126.127 34.6015 123.691 35.4134 120.227 35.4134C118.386 35.4134 115.219 35.3594 112.594 35.3322H112.567C112.431 35.0887 112.783 34.1413 112.999 34.1144C113.703 34.0331 113.893 34.0058 114.245 33.8709C114.813 33.6542 114.922 33.3564 115.003 32.3551C115.084 30.4873 115.057 28.2409 115.057 25.6965C115.057 23.8833 115.084 20.3372 115.029 19.2004C114.948 18.2533 114.543 18.0095 113.73 17.847C113.324 17.7661 112.783 17.6576 112.025 17.5766C111.917 17.3868 112.404 16.5477 112.539 16.3855Z" fill="#475569" fill-opacity="0.5"/>
<path fill-rule="evenodd" clip-rule="evenodd" d="M79.7888 34.2767C79.1121 34.1954 78.625 34.0875 78.0295 33.8168C77.9483 33.7625 77.8128 33.4921 77.8128 33.3835C77.7588 32.4362 77.7588 29.7295 77.7588 27.9163C77.7588 26.4545 77.5154 25.1824 76.8927 24.2893C76.1618 23.2604 75.1065 22.6653 73.7529 22.6653C72.562 22.6653 70.965 23.4772 69.6387 24.614C69.6117 24.641 69.3952 24.8308 69.4222 24.5328C69.4222 24.2351 69.4765 23.6396 69.5034 23.2334C69.5307 22.8545 69.314 22.6653 69.314 22.6653C68.4478 23.0982 66.0119 23.6666 65.1185 23.7476C64.4691 23.8834 64.3067 24.5058 64.9836 24.7222H65.0106C65.7409 24.9387 66.2284 25.1824 66.6071 25.4262C66.8778 25.6426 66.8508 25.9403 66.8508 26.1841C66.8778 28.2137 66.8778 31.3266 66.7968 33.0319C66.7698 33.7085 66.5804 33.952 66.0929 34.0602L66.1471 34.0332C65.7682 34.1145 65.4705 34.1954 65.0103 34.2497C64.8478 34.4122 64.8478 35.2783 65.0103 35.4678C65.308 35.4678 66.8778 35.3865 68.1774 35.3865C69.9636 35.3865 70.884 35.4678 71.3439 35.4678C71.5334 35.2513 71.5877 34.4392 71.4794 34.2497C70.965 34.2227 70.586 34.1687 70.2344 34.0602C69.7472 33.9517 69.6117 33.7085 69.5844 33.1401C69.5307 31.7053 69.5307 28.6739 69.5307 26.617C69.5307 26.0486 69.6929 25.7778 69.8551 25.6154C70.4778 25.0742 71.4794 24.6953 72.3726 24.6953C73.2387 24.6953 73.8068 24.966 74.24 25.3179C74.8354 25.8048 75.0249 26.5088 75.1062 27.0229C75.2414 28.1868 75.1874 30.4874 75.1874 32.4904C75.1874 33.573 75.1062 33.8437 74.7005 33.979C74.5108 34.0602 74.0236 34.1687 73.4551 34.2224C73.2657 34.4122 73.3199 35.2513 73.4551 35.4408C74.24 35.4408 75.1604 35.3596 76.5137 35.3596C78.1917 35.3596 79.2746 35.4408 79.7078 35.4408C79.8428 35.2783 79.897 34.4934 79.7888 34.2767ZM87.2863 23.9376C85.852 23.9376 84.9586 25.0472 84.9586 26.7792C84.9586 28.5387 85.7435 30.5687 87.9629 30.5687C88.3419 30.5687 89.0458 30.4062 89.3702 30.0273C89.8847 29.5404 90.2366 28.5657 90.2366 27.5371C90.2366 25.2907 89.1268 23.9376 87.2863 23.9376ZM87.0968 35.9007C86.5556 35.9007 86.1764 36.0632 85.933 36.1987C84.7961 36.929 84.2819 37.633 84.2819 38.4724C84.2819 39.257 84.5796 39.8794 85.2293 40.4208C86.0142 41.0975 87.0968 41.4225 88.4771 41.4225C91.238 41.4225 92.4561 39.9337 92.4561 38.4724C92.4561 37.4435 91.9416 36.7668 90.8863 36.3882C90.1284 36.0632 88.7481 35.9007 87.0968 35.9007ZM87.2863 42.9383C85.6353 42.9383 84.4441 42.5863 83.4158 41.8014C82.4142 41.0435 81.9812 39.9067 81.9812 39.1218C81.9812 38.9053 82.0355 38.3096 82.5227 37.7685C82.8201 37.4435 83.4701 36.8211 85.0129 35.7655C85.0668 35.7385 85.0938 35.7115 85.0938 35.657C85.0938 35.603 85.0395 35.5487 84.9856 35.522C83.7135 35.0349 83.3346 34.2497 83.226 33.8168V33.7625C83.1994 33.6 83.1451 33.4378 83.3888 33.2753C83.5783 33.1401 83.849 32.9776 84.1464 32.7884C84.6066 32.5174 85.0938 32.2197 85.3915 31.976C85.4458 31.922 85.4458 31.868 85.4458 31.8138C85.4458 31.7595 85.3915 31.7053 85.3373 31.6786C83.4431 31.0559 82.4957 29.6483 82.4957 27.5371C82.4957 26.1568 83.1181 24.9117 84.2277 24.1268C84.9856 23.5314 86.8803 22.8005 88.1254 22.8005H88.2067C89.4787 22.8275 90.1824 23.0982 91.1837 23.4502C91.7252 23.6396 92.2396 23.7206 92.9435 23.7206C93.9989 23.7206 94.4591 23.3959 94.8377 23.0173C94.865 23.0712 94.9193 23.2067 94.9462 23.5584C94.9732 23.9104 94.865 24.4245 94.5943 24.8035C94.3778 25.1012 93.8906 25.3179 93.4034 25.3179H93.2679C92.7808 25.2637 92.564 25.2094 92.564 25.2094L92.4561 25.2637C92.4291 25.3179 92.4561 25.3719 92.4831 25.4532L92.5103 25.5074C92.5643 25.7509 92.6725 26.4815 92.6725 26.6713C92.6725 28.8907 91.7794 29.8648 90.832 30.5957C89.9116 31.2723 88.8563 31.7053 87.6652 31.8138C87.6382 31.8138 87.5303 31.8138 87.2863 31.8408C87.1511 31.8408 86.9616 31.868 86.9343 31.868H86.9073C86.6909 31.922 86.1497 32.1927 86.1497 32.6526C86.1497 33.0586 86.3932 33.546 87.557 33.6273C87.8004 33.6543 88.0439 33.6543 88.3149 33.6815C89.8577 33.7895 91.7794 33.925 92.6725 34.2227C93.9176 34.6826 94.7025 35.7925 94.7025 37.1188C94.7025 39.1221 93.2682 40.9895 90.8863 42.1531C89.7225 42.6676 88.5583 42.9383 87.2863 42.9383ZM102.714 24.0729C102.146 24.0729 101.632 24.2078 101.253 24.4785C100.197 25.1282 99.6558 26.4275 99.6558 28.322C99.6558 31.868 101.442 34.3582 103.986 34.3582C104.744 34.3582 105.34 34.1415 105.854 33.7085C106.639 33.0586 107.045 31.7595 107.045 29.946C107.045 26.4275 105.286 24.0726 102.714 24.0726L102.714 24.0729ZM103.202 35.6573C98.6002 35.6573 96.9492 32.274 96.9492 29.1072C96.9492 26.8877 97.8423 25.1824 99.6286 23.9643C100.901 23.1794 102.417 22.7465 103.77 22.7465C107.289 22.7465 109.752 25.2637 109.752 28.8907C109.752 31.3536 108.777 33.3023 106.91 34.4934C106.016 35.0888 104.474 35.6573 103.201 35.6573H103.202ZM54.9687 24.0726C54.4003 24.0726 53.8861 24.2078 53.5068 24.4785C52.4515 25.1282 51.9101 26.4275 51.9101 28.322C51.9101 31.868 53.6963 34.3582 56.2407 34.3582C56.9987 34.3582 57.5941 34.1415 58.1085 33.7085C58.8931 33.0586 59.2993 31.7595 59.2993 29.946C59.2993 26.4275 57.5671 24.0726 54.9687 24.0726ZM55.4559 35.6573C50.8545 35.6573 49.2035 32.274 49.2035 29.1072C49.2035 26.8877 50.0966 25.1824 51.8828 23.9643C53.1552 23.1794 54.671 22.7465 56.0243 22.7465C59.5431 22.7465 62.006 25.2637 62.006 28.8907C62.006 31.3536 61.0316 33.3023 59.1638 34.4934C58.2977 35.0888 56.7549 35.6573 55.4559 35.6573ZM24.5186 35.3865C24.4643 35.3056 24.4101 35.0618 24.4373 34.7641C24.4373 34.5474 24.4916 34.4122 24.5186 34.3582C25.087 34.2767 25.3847 34.1954 25.7094 34.1145C26.2508 33.979 26.4673 33.6815 26.4943 33.0049C26.5758 31.3809 26.5758 28.295 26.5485 26.1568V26.1025C26.5485 25.8591 26.5485 25.5611 26.2508 25.3446C25.8176 25.0742 25.3035 24.8308 24.6268 24.6407C24.3834 24.56 24.2209 24.4245 24.2479 24.2623C24.2479 24.0998 24.4103 23.9104 24.7623 23.8561C25.6554 23.7749 27.9828 23.2067 28.9032 22.8005C28.9575 22.8545 29.0387 23.0173 29.0387 23.2337L29.0117 23.5311C28.9844 23.8291 28.9575 24.1811 28.9575 24.5328C28.9575 24.641 29.066 24.7222 29.1739 24.7222C29.2282 24.7222 29.2824 24.6953 29.3364 24.668C31.0687 23.3147 32.6384 22.8275 33.4503 22.8275C34.7769 22.8275 35.8056 23.4502 36.5904 24.7492C36.6444 24.8308 36.6987 24.8577 36.7799 24.8577C36.8339 24.8577 36.9148 24.8308 36.9421 24.7765C38.5392 23.5584 40.1362 22.8275 41.1915 22.8275C43.7087 22.8275 45.1975 24.6953 45.1975 27.8621C45.1975 28.7552 45.1975 29.919 45.1705 30.9749C45.1705 31.922 45.1435 32.7881 45.1435 33.4108C45.1435 33.5457 45.3327 33.979 45.6304 34.0602C46.0094 34.2497 46.5238 34.3309 47.2005 34.4392H47.2275C47.2817 34.6286 47.1735 35.3323 47.0653 35.4678C46.9028 35.4678 46.659 35.4678 46.3886 35.4408C45.7034 35.405 45.0175 35.387 44.3314 35.3865C42.6534 35.3865 41.7872 35.4135 40.9478 35.4678C40.8941 35.2513 40.8668 34.6016 40.9478 34.4392C41.4353 34.3582 41.6787 34.2767 41.9767 34.1957C42.5182 34.0332 42.6534 33.7895 42.6806 33.0858C42.6806 32.5717 42.7886 28.1868 42.6261 27.1312C42.4639 26.0486 41.6517 24.7765 39.8652 24.7765C39.1886 24.7765 38.1332 25.0472 37.1046 25.8318C37.0506 25.8861 36.9961 26.0213 36.9961 26.1025V26.1298C37.1046 26.6979 37.1046 27.3479 37.1046 28.3493V30.1085C37.1046 31.3266 37.0773 32.4634 37.1046 33.3293C37.1046 33.925 37.4566 34.0602 37.7543 34.1687C37.9168 34.1954 38.0247 34.2227 38.1602 34.2497C38.4037 34.3039 38.6474 34.3582 39.0264 34.4392C39.0806 34.5477 39.0806 34.8994 38.9994 35.1971C38.9721 35.3596 38.9178 35.4405 38.8908 35.4678C37.9707 35.4408 37.0234 35.4135 35.6431 35.4135C35.2371 35.4135 34.5332 35.4408 33.9378 35.4408C33.4503 35.4408 32.9904 35.4678 32.72 35.4678C32.6927 35.4135 32.6384 35.2243 32.6384 34.9263C32.6384 34.6829 32.6927 34.4934 32.747 34.4392C32.8822 34.4122 32.9904 34.3852 33.1259 34.3852C33.4503 34.3309 33.7213 34.2767 33.9918 34.2227C34.4523 34.0875 34.6145 33.8437 34.6414 33.2483C34.7227 31.895 34.8039 28.0246 34.6144 27.0499C34.2898 25.4801 33.3966 24.6953 31.9618 24.6953C31.1229 24.6953 30.067 25.1012 29.2012 25.7512C29.0657 25.8591 28.9575 26.1295 28.9575 26.3733V27.9703C28.9575 29.919 28.9575 32.3552 28.9844 33.4108C29.0117 33.7352 29.1197 34.1145 29.7424 34.2497C29.8779 34.2767 30.0943 34.3309 30.365 34.3582L30.8519 34.4392C30.9065 34.6016 30.8792 35.2513 30.771 35.4678C30.5003 35.4678 30.1756 35.4408 29.7963 35.4408C29.2282 35.4135 28.4973 35.3865 27.6854 35.3865C26.738 35.3865 26.0614 35.4135 25.5199 35.4408C25.141 35.3865 24.8433 35.3865 24.5186 35.3865Z" fill="#475569" fill-opacity="0.5"/>
<path fill-rule="evenodd" clip-rule="evenodd" d="M10.2812 41.8824L9.17164 41.5032C9.17164 41.5032 9.30714 35.8465 7.27688 35.4405C5.92387 33.8705 7.49393 -31.1436 12.3657 35.2238C12.3657 35.2238 10.6874 36.0626 10.3897 37.4975C10.0648 38.9051 10.2812 41.8824 10.2812 41.8824Z" fill="#475569" fill-opacity="0.5"/>
<path fill-rule="evenodd" clip-rule="evenodd" d="M10.2812 41.8824L9.17164 41.5032C9.17164 41.5032 9.30714 35.8465 7.27688 35.4405C5.92387 33.8705 7.49393 -31.1436 12.3657 35.2238C12.3657 35.2238 10.6874 36.0626 10.3897 37.4975C10.0648 38.9051 10.2812 41.8824 10.2812 41.8824Z" fill="#475569" fill-opacity="0.5"/>
<path fill-rule="evenodd" clip-rule="evenodd" d="M10.877 36.4149C10.877 36.4149 20.5942 30.027 18.3202 16.737C16.128 7.07466 10.9582 3.90784 10.3898 2.68975C9.7674 1.82362 9.17169 0.308105 9.17169 0.308105L9.57792 27.1849C9.57792 27.2121 8.73877 35.4133 10.8773 36.4152" fill="#475569" fill-opacity="0.5"/>
<path fill-rule="evenodd" clip-rule="evenodd" d="M10.877 36.4149C10.877 36.4149 20.5942 30.027 18.3202 16.737C16.128 7.07466 10.9582 3.90784 10.3898 2.68975C9.7674 1.82362 9.17169 0.308105 9.17169 0.308105L9.57792 27.1849C9.57792 27.2121 8.73877 35.4133 10.8773 36.4152" fill="#475569" fill-opacity="0.5"/>
<path fill-rule="evenodd" clip-rule="evenodd" d="M8.60355 36.7667C8.60355 36.7667 -0.518258 30.5413 0.0231841 19.5796C0.537349 8.61758 6.97922 3.23131 8.2243 2.25695C9.03646 1.39082 9.06345 1.06584 9.11771 0.199707C9.68614 1.4178 9.57791 18.4157 9.65886 20.4184C9.9023 28.1324 9.22594 35.3054 8.60355 36.7667Z" fill="#475569" fill-opacity="0.5"/>
<path fill-rule="evenodd" clip-rule="evenodd" d="M8.60355 36.7667C8.60355 36.7667 -0.518258 30.5413 0.0231841 19.5796C0.537349 8.61758 6.97922 3.23131 8.2243 2.25695C9.03646 1.39082 9.06345 1.06584 9.11771 0.199707C9.68614 1.4178 9.57791 18.4157 9.65886 20.4184C9.9023 28.1324 9.22594 35.3054 8.60355 36.7667Z" fill="#475569" fill-opacity="0.5"/>
</svg>
