<svg width="150" height="78" viewBox="0 0 150 78" fill="none" xmlns="http://www.w3.org/2000/svg">
<path d="M73.9774 47.7499H87.8526V51.0434H73.74C73.597 51.0434 73.4074 51.0748 73.2644 51.0748C71.5067 51.2337 70.9839 51.5193 70.7467 52.5326C70.6986 52.6911 70.6986 52.8182 70.6986 52.945V55.1935C70.6986 55.3524 70.6986 55.4795 70.7467 55.638C70.9842 56.9686 71.9344 57.5692 73.9296 57.5692H79.9167C81.39 57.5692 82.9097 57.8231 84.1463 58.2989C86.4741 59.1854 87.663 60.5158 87.663 61.9415V65.5524C87.663 67.2954 86.6171 68.6264 84.4792 69.6074C83.195 70.2094 81.5802 70.557 79.9164 70.557H65.7092V67.2634H79.3475C79.5377 67.2634 79.6795 67.232 79.87 67.232C80.8196 67.1683 81.5326 66.9147 81.9597 66.5337C82.4359 66.1553 82.6728 65.7109 82.6728 65.3619V62.4799C82.6728 62.1637 82.5777 61.8781 82.2932 61.5925C81.8183 61.0227 81.1516 60.738 79.5841 60.6112C79.4414 60.5795 79.2521 60.5795 79.0619 60.5795H73.9293C73.4543 60.5795 72.9797 60.5478 72.5036 60.5158C68.2751 60.0728 65.7568 58.1721 65.7568 55.9541V53.0721C65.7568 50.538 67.0399 49.0802 69.9859 48.1614C70.936 47.8767 71.9816 47.7499 73.9774 47.7499ZM112.446 69.5578L117.314 73.9512H111.576L107.638 70.3964L103.673 70.648H98.387C97.4826 70.648 96.5303 70.5209 95.483 70.2353C92.3409 69.3784 90.8162 67.7281 90.8162 64.9973V53.2526C90.8162 50.2682 92.9124 48.4579 97.054 47.8867C97.4826 47.823 97.9587 47.7916 98.387 47.7916H107.768C108.244 47.7916 108.673 47.823 109.149 47.8867C113.29 48.4579 115.385 50.2682 115.385 53.2526V64.9973C115.386 67.4178 114.497 68.7141 112.446 69.5578ZM110.768 53.5386C110.768 53.4114 110.768 53.2526 110.72 53.0927C110.435 51.8234 109.149 51.093 107.245 51.093H99.7693C97.578 51.093 96.1511 52.0453 96.1511 53.5383V64.7114C96.1511 64.8702 96.1986 65.0287 96.245 65.2192C96.5306 66.5851 97.8172 67.3468 99.7693 67.3468H104.258L100.134 63.6235H105.873L109.47 66.8707C110.132 66.5167 110.569 65.9771 110.72 65.2826C110.768 65.1253 110.768 64.9653 110.768 64.8065V53.5386ZM31.9316 47.7813C28.1777 46.6095 25.6589 47.6228 24.519 50.1569L17.0111 66.9464L9.74121 50.1569C8.64806 47.6228 6.0822 46.6095 2.32867 47.7813C0.760569 48.2562 0 49.1753 0 51.0748V70.5573H4.9412V51.0431L12.5921 68.0548C13.4947 70.1143 14.7303 70.8429 17.1532 70.8429C19.5769 70.8429 20.7646 70.1143 21.6679 68.0548L29.3182 51.0431V70.5573H34.2602V51.0748C34.2599 49.1753 33.4997 48.2562 31.9316 47.7813ZM56.9493 54.6223V67.4225C56.8627 67.4225 47.5847 67.4445 46.2036 67.4225C43.4966 67.3809 43.2629 66.0091 43.3093 65.4253V54.6734H38.369C38.477 54.7808 38.3678 65.5377 38.3713 65.7646C38.4098 68.218 41.5219 70.3497 46.4085 70.3958H56.912V71.6909C56.9126 72.2231 57.2881 73.8042 54.1075 74.1411C54.0685 74.1435 38.5034 74.1411 38.4764 74.1411V77.4664H54.0802C56.5551 77.393 61.9246 76.4578 61.897 72.1524C61.8964 72.0778 61.9246 54.6217 61.9014 54.6217H56.9493V54.6223ZM146.961 67.4225L148.154 69.249H147.339L146.251 67.4519H145.601V69.249H144.902V65.0912H146.523C147.552 65.0912 148.087 65.4414 148.087 66.2862C148.087 67.0442 147.601 67.3544 146.961 67.4225ZM146.348 66.8686C146.873 66.8686 147.329 66.8196 147.329 66.2387C147.329 65.7532 146.824 65.6748 146.406 65.6748H145.601V66.8686H146.348ZM150 67.1701C150 69.3452 148.281 70.8112 146.357 70.8112C144.436 70.8112 142.716 69.3452 142.716 67.1701C142.716 64.9946 144.436 63.5287 146.357 63.5287C148.281 63.5287 150 64.9946 150 67.1701ZM149.185 67.1701C149.185 65.5183 147.922 64.2854 146.357 64.2854C144.775 64.2854 143.531 65.5183 143.531 67.1701C143.531 68.8204 144.775 70.0544 146.357 70.0544C147.922 70.0544 149.185 68.8204 149.185 67.1701ZM106.134 9.37447C105.5 9.36273 105.052 9.44316 104.579 9.54707C104.579 9.57584 104.579 9.60431 104.579 9.63308C104.608 9.63308 104.636 9.63308 104.665 9.63308C104.968 10.2539 105.502 10.6537 105.875 11.1886C106.162 11.7936 106.45 12.3977 106.738 13.0018C106.767 12.973 106.796 12.9445 106.825 12.9158C107.36 12.5392 107.605 11.9362 107.602 11.0157C107.387 10.7896 107.355 10.5073 107.17 10.2381C106.924 9.87907 106.445 9.67623 106.134 9.37447ZM147.939 53.6862C148.347 53.9853 148.62 54.4491 149.149 54.637C149.149 54.6076 149.149 54.5786 149.149 54.5504C148.871 54.1976 148.8 53.7106 148.545 53.3407C148.171 52.9673 147.795 52.5925 147.422 52.2176C146.323 50.7602 144.93 49.4809 143.448 48.4177C142.268 47.5691 139.623 46.4242 139.13 45.0496C139.101 45.0202 139.072 44.9912 139.043 44.9618C139.88 44.8679 140.861 44.5649 141.634 44.3574C142.933 44.0093 144.094 44.0997 145.434 43.753C146.04 43.5795 146.644 43.4063 147.248 43.2352C147.248 43.1193 147.248 43.0048 147.248 42.8885C146.571 42.1928 146.087 41.2723 145.349 40.6426C143.414 38.9964 141.304 37.3503 139.129 35.9788C137.925 35.2174 136.434 34.7233 135.156 34.0781C134.726 33.8615 133.972 33.7485 133.687 33.3871C133.017 32.5312 132.651 31.4465 132.133 30.45C131.049 28.362 129.984 26.0817 129.023 23.8849C128.369 22.3872 127.94 20.9101 127.123 19.566C123.201 13.1177 118.979 9.22535 112.439 5.39961C111.047 4.5862 109.372 4.26507 107.602 3.8453C106.653 3.78806 105.701 3.72964 104.752 3.6724C104.172 3.43023 103.569 2.72103 103.024 2.3767C100.857 1.00821 95.2998 -1.9692 93.6959 1.9452C92.6826 4.41536 95.2094 6.82593 96.1138 8.07818C96.7487 8.95617 97.5604 9.94101 98.0148 10.9282C98.3127 11.5772 98.3635 12.2286 98.6204 12.9152C99.2479 14.6072 99.7933 16.4477 100.605 18.0117C101.017 18.8025 101.469 19.6364 101.988 20.3436C102.307 20.7777 102.851 20.9688 102.937 21.6393C102.404 22.3857 102.374 23.5441 102.075 24.4896C100.724 28.7465 101.234 34.0368 103.198 37.1876C103.8 38.1543 105.219 40.2293 107.17 39.4329C108.876 38.7378 108.496 36.5832 108.984 34.6825C109.094 34.2507 109.027 33.934 109.243 33.646C109.243 33.6742 109.243 33.7033 109.243 33.7321C109.762 34.7686 110.28 35.805 110.798 36.8413C111.949 38.6944 113.991 40.6324 115.722 41.9383C116.618 42.6158 117.325 43.7876 118.486 44.1842C118.486 44.1549 118.486 44.1258 118.486 44.0965C118.456 44.0965 118.427 44.0965 118.399 44.0965C118.173 43.7474 117.822 43.601 117.536 43.32C116.86 42.6569 116.108 41.8332 115.549 41.0738C113.974 38.9371 112.584 36.5982 111.317 34.1641C110.711 33.0014 110.185 31.7189 109.675 30.5363C109.478 30.0798 109.481 29.3903 109.07 29.154C108.511 30.0205 107.688 30.7221 107.256 31.7454C106.565 33.3816 106.476 35.3768 106.22 37.446C106.068 37.5006 106.136 37.4633 106.046 37.532C104.843 37.2425 104.42 36.0038 103.974 34.9412C102.843 32.2547 102.633 27.9281 103.628 24.8351C103.886 24.0352 105.05 21.5145 104.578 20.7754C104.353 20.0374 103.612 19.6115 103.197 19.0476C102.682 18.3507 102.169 17.434 101.813 16.6288C100.889 14.5341 100.457 12.1825 99.4825 10.0646C99.0163 9.05275 98.2288 8.0277 97.5818 7.1274C96.8655 6.13053 96.0633 5.39667 95.5088 4.19021C95.3112 3.76193 95.0427 3.07651 95.3356 2.6359C95.4281 2.33854 95.5602 2.21467 95.8546 2.11751C96.3563 1.7312 97.7503 2.24608 98.2725 2.46301C99.6569 3.03806 100.814 3.5861 101.987 4.36311C102.55 4.73649 103.12 5.4592 103.8 5.6591C104.06 5.6591 104.319 5.6591 104.577 5.6591C105.795 5.93826 107.157 5.74628 108.292 6.09119C110.3 6.70147 112.1 7.65079 113.734 8.68288C118.712 11.8258 122.783 16.3012 125.567 21.6393C126.015 22.4988 126.21 23.3189 126.603 24.231C127.399 26.0694 128.403 27.9607 129.195 29.759C129.985 31.5519 130.755 33.3622 131.872 34.8551C132.459 35.6395 134.728 36.0604 135.76 36.4966C136.483 36.8016 137.667 37.1204 138.35 37.532C139.659 38.3213 140.925 39.26 142.151 40.1242C142.764 40.5566 144.649 41.5036 144.742 42.2827C141.704 42.2022 139.384 42.4843 137.4 43.3203C136.836 43.5572 135.938 43.5643 135.845 44.2697C136.155 44.5943 136.204 45.0804 136.451 45.4793C136.923 46.2461 137.723 47.2726 138.437 47.8121C139.217 48.4007 140.02 49.0303 140.855 49.5396C142.342 50.4467 144.002 50.9642 145.433 51.8721C146.279 52.4081 147.117 53.0818 147.939 53.6862ZM123.433 64.7933V47.7496H118.491V64.8247C118.491 68.2133 121.009 70.1143 126.094 70.4948C126.568 70.5253 127.043 70.557 127.519 70.557H140.396V67.2634H127.424C124.526 67.2637 123.433 66.534 123.433 64.7933Z" fill="#475569" fill-opacity="0.5"/>
</svg>
