<svg width="68" height="61" viewBox="0 0 68 61" fill="none" xmlns="http://www.w3.org/2000/svg">
<path d="M67.8415 30.7774C67.8415 26.4804 63.2376 22.4904 55.5645 19.7281L54.1833 19.2677V18.6539C55.8714 10.2134 54.6437 3.92149 50.8072 1.61955C46.9706 -0.682379 41.2925 1.46609 35.154 6.83727L34.2332 7.75804L33.9263 7.45112H33.6194C27.3274 1.61955 21.1889 -0.375455 17.3524 1.77302C13.5158 3.92149 12.4416 9.90651 13.9762 17.7331C14.1377 18.231 14.2407 18.746 14.2831 19.2677L12.5951 19.8816C5.0754 22.4904 0.625 26.4804 0.625 30.7774C0.625 35.0743 5.53579 39.3713 13.2089 42.1336L14.2831 42.4405C14.0935 42.9838 13.99 43.5533 13.9762 44.1286C12.4416 51.8017 13.8228 57.6333 17.3524 59.7817C20.882 61.9302 27.3274 59.9352 33.4659 54.564L34.3867 53.7967L35.6144 55.0244C39.9113 58.7075 44.2083 60.7025 47.5844 60.7025C48.7753 60.7297 49.9484 60.4097 50.9606 59.7817C54.7972 57.6333 56.1783 51.3413 54.4902 43.3613V43.0544C54.424 42.8018 54.3727 42.5456 54.3368 42.287H54.7972C62.9307 39.3713 67.8415 35.2278 67.8415 30.7774ZM63.3911 30.7774C63.3911 32.6189 60.0149 35.8416 53.416 37.9901H53.1091C52.3046 35.5215 51.3303 33.1115 50.1933 30.7774C51.2675 28.322 52.1883 25.8666 52.9556 23.5647L54.1833 23.8716C60.3218 26.02 63.3911 28.9358 63.3911 30.7774ZM38.5302 51.6482L37.3025 50.7275C39.0597 48.7805 40.6995 46.7307 42.2133 44.589L50.0398 43.3613C50.1933 43.6682 50.1933 43.9751 50.3468 44.1286C50.8936 46.9083 50.9972 49.757 50.6537 52.569C50.4381 53.9139 49.7918 55.1524 48.8121 56.0986C47.2775 57.0194 43.134 55.7917 38.5302 51.6482ZM36.5352 44.8959L34.3867 47.6582L31.9313 44.8959H36.5352ZM15.5108 23.4112C16.2822 25.9413 17.2573 28.4048 18.4266 30.7774C17.2563 33.2024 16.2813 35.7169 15.5108 38.297L14.5901 37.9901C11.9027 37.1419 9.40241 35.7876 7.22388 34.0001C6.65977 33.6436 6.17697 33.1725 5.80682 32.6173C5.43668 32.0621 5.18748 31.4352 5.0754 30.7774C5.0754 28.9358 8.14465 26.02 13.9762 24.025L15.5108 23.4112ZM31.9313 16.6589L34.2332 14.05L36.5352 16.6589H31.9313ZM48.8121 5.45611C50.5002 6.37688 51.421 10.9807 50.0398 17.7331C50.0469 17.8162 50.0369 17.8999 50.0105 17.9791C49.9842 18.0582 49.9419 18.1312 49.8864 18.1935L42.2133 16.9658C40.6995 14.8241 39.0597 12.7743 37.3025 10.8273L38.2232 10.06C43.134 5.76303 47.1241 4.53534 48.8121 5.45611ZM23.1839 21.7231L21.9562 23.7181L20.882 25.7131C20.4216 24.6389 20.1147 23.5647 19.6543 22.337L23.1839 21.7231ZM19.6543 39.2178C20.1147 38.1436 20.4216 37.0693 20.882 35.8416L21.9562 37.8366L23.1839 39.8316L19.6543 39.2178ZM45.2825 30.7774C44.5016 32.4599 43.6307 34.0992 42.6737 35.6882C41.7529 37.3763 40.6786 38.9109 39.7579 40.4455H28.7086C27.6344 38.7574 26.5601 37.2228 25.7928 35.6882C24.8282 34.1035 23.9571 32.4638 23.1839 30.7774C23.9286 29.077 24.8007 27.4354 25.7928 25.8666C26.6745 24.2766 27.6481 22.7394 28.7086 21.2627C32.3853 20.956 36.0812 20.956 39.7579 21.2627C40.8321 22.7973 41.7529 24.332 42.6737 25.8666C43.6658 27.4354 44.5379 29.077 45.2825 30.7774ZM46.5102 23.7181L45.2825 21.7231L48.8121 22.4904C48.4704 23.5892 48.0604 24.6655 47.5844 25.7131L46.5102 23.7181ZM45.2825 39.8316L46.5102 37.8366L47.5844 35.6882L48.9656 39.2178L45.2825 39.8316ZM31.0105 10.6738H31.164L26.2532 16.8123L18.5801 18.04C18.4266 17.5796 18.4266 17.2727 18.2732 16.8123C17.0455 10.5204 17.9662 6.22342 19.5009 5.45611C19.9083 5.1885 20.3996 5.07932 20.882 5.14919C23.0305 5.14919 26.7136 6.68381 30.8571 10.3669L31.0105 10.6738ZM18.2732 44.8959C18.3012 44.4221 18.4048 43.9558 18.5801 43.5147L26.4067 44.589C27.8821 46.7593 29.5239 48.8116 31.3174 50.7275L31.0105 51.0344L30.7036 51.3413C28.6114 53.2794 26.1615 54.791 23.4909 55.7917C22.905 56.0986 22.2632 56.284 21.6039 56.3367C20.9447 56.3894 20.2815 56.3085 19.6543 56.0986C17.9662 55.1779 17.0455 51.0344 18.2732 44.8959Z" fill="#475569" fill-opacity="0.5"/>
<path d="M34.2333 24.0257C32.8917 23.9952 31.5714 24.3651 30.441 25.0883C29.3106 25.8115 28.4213 26.8551 27.8866 28.0859C27.3519 29.3167 27.1961 30.679 27.439 31.9987C27.682 33.3185 28.3127 34.536 29.2506 35.4957C30.1885 36.4554 31.3912 37.1139 32.705 37.3872C34.0189 37.6604 35.3843 37.5359 36.6271 37.0297C37.8699 36.5234 38.9337 35.6584 39.6826 34.5449C40.4316 33.4314 40.8318 32.12 40.8321 30.778C40.8326 29.0135 40.1423 27.3188 38.909 26.0568C37.6757 24.7948 35.9974 24.0658 34.2333 24.0257Z" fill="#475569" fill-opacity="0.5"/>
</svg>
