<svg width="60" height="37" viewBox="0 0 60 37" fill="none" xmlns="http://www.w3.org/2000/svg">
<path d="M15 12.1997C17 4.19971 22 0.199707 30 0.199707C42 0.199707 43.5 9.19971 49.5 10.6997C53.5 11.6997 57 10.1997 60 6.19971C58 14.1997 53 18.1997 45 18.1997C33 18.1997 31.5 9.19971 25.5 7.69971C21.5 6.69971 18 8.19971 15 12.1997ZM0 30.1997C2 22.1997 7 18.1997 15 18.1997C27 18.1997 28.5 27.1997 34.5 28.6997C38.5 29.6997 42 28.1997 45 24.1997C43 32.1997 38 36.1997 30 36.1997C18 36.1997 16.5 27.1997 10.5 25.6997C6.5 24.6997 3 26.1997 0 30.1997Z" fill="#475569" fill-opacity="0.5"/>
</svg>
