<svg width="100" height="100" viewBox="0 0 100 100" fill="none" xmlns="http://www.w3.org/2000/svg">
<rect width="100" height="100" rx="50" fill="#B41C21"/>
<g clip-path="url(#clip0_178_17)">
<path fill-rule="evenodd" clip-rule="evenodd" d="M87.1793 59.291C87.0606 58.8385 86.7685 58.4508 86.3664 58.2117C86.3451 58.2043 86.2742 58.1611 86.251 58.1537C86.0169 58.0346 85.7586 57.9715 85.496 57.9695C85.2184 57.9675 84.9437 58.024 84.6893 58.1353C84.4281 58.2405 84.1906 58.3971 83.9912 58.5957C83.984 58.5957 83.9772 58.6031 83.97 58.6095C83.7691 58.8027 83.6035 59.0292 83.48 59.279C83.3472 59.5396 83.2642 59.8229 83.2362 60.1142C83.2062 60.3935 83.2352 60.6758 83.3216 60.943C83.395 61.1716 83.5152 61.3823 83.6745 61.5618C83.6745 61.5618 83.689 61.583 83.6967 61.583C83.8565 61.7648 84.0593 61.9035 84.2866 61.9863C84.3789 62.0149 84.9553 62.1521 85.0233 62.0011C85.0161 61.979 84.5049 61.7773 84.4184 61.7202C84.2456 61.6156 84.094 61.4787 83.9729 61.3169C83.8546 61.1502 83.7691 60.9628 83.7204 60.7644C83.6716 60.5531 83.6615 60.3346 83.6919 60.1197C83.7247 59.8967 83.7981 59.6815 83.9091 59.4853C83.982 59.3366 84.0747 59.1986 84.1857 59.0755C84.2181 59.0359 84.2538 58.9996 84.2934 58.9669C84.4464 58.8177 84.6246 58.6962 84.8191 58.6077C85.0132 58.5175 85.2237 58.4682 85.438 58.4632C85.6432 58.4571 85.8474 58.4964 86.0357 58.5782C86.2191 58.6538 86.3838 58.7696 86.517 58.9171C86.6555 59.0706 86.7589 59.2522 86.8202 59.4494C86.8897 59.6653 86.9167 59.8927 86.8993 60.1188C86.8564 60.6054 86.6512 61.0633 86.3166 61.4191C86.1486 61.5973 85.9512 61.7455 85.7335 61.8574C85.6606 61.8933 85.0282 62.1024 85.0132 62.1097C85.0779 62.2175 85.6755 62.0665 85.7832 62.0232C86.0352 61.924 86.2669 61.7802 86.4673 61.5987C86.6749 61.4092 86.8477 61.1852 86.9785 60.9366C87.1137 60.681 87.2015 60.403 87.2373 60.1161C87.2754 59.84 87.2556 59.559 87.1793 59.291Z" fill="white"/>
<path fill-rule="evenodd" clip-rule="evenodd" d="M76.9453 45.3362C76.2086 48.1071 75.6284 50.2444 75.218 52.4112C74.8072 54.578 74.5629 56.765 74.4915 59.6298C76.0744 56.0449 77.4203 49.5178 78.5717 45.3362H76.9453Z" fill="white"/>
<path fill-rule="evenodd" clip-rule="evenodd" d="M67.6319 63.0613C71.6553 63.134 75.5632 63.1911 79.6444 63.1911L80.0403 62.1782C76.2786 62.1607 73.3999 62.3964 69.9164 62.5843C68.443 62.6635 66.9633 62.7813 65.4962 62.9471L65.1023 62.9922L67.6319 63.0613Z" fill="white"/>
<path fill-rule="evenodd" clip-rule="evenodd" d="M88.5976 58.7657C88.4692 58.3684 88.2583 58.0029 87.9787 57.6929C87.9686 57.6748 87.9565 57.6578 87.943 57.6422C87.6572 57.3312 87.3024 57.092 86.907 56.9442C86.7487 56.8945 85.7474 56.668 85.6176 56.9157C85.6316 56.9663 86.5237 57.319 86.6748 57.4047C86.9741 57.5888 87.2358 57.8282 87.4458 58.11C87.6519 58.4009 87.8006 58.7284 87.8836 59.0751C87.9696 59.443 87.9869 59.8235 87.9343 60.1976C87.8812 60.5835 87.762 60.9573 87.5819 61.3027C87.4438 61.558 87.2773 61.7968 87.0856 62.0145C87.0494 62.0504 86.9273 62.1876 86.9012 62.2088C86.6343 62.4658 86.3248 62.675 85.9869 62.8276C85.648 62.9841 85.2806 63.0699 84.9074 63.0799C84.5555 63.0933 84.205 63.0293 83.8806 62.8925C83.5557 62.7556 83.2651 62.5493 83.029 62.288C82.791 62.0215 82.6119 61.7076 82.5033 61.3671C82.3797 60.9891 82.3309 60.5906 82.3594 60.194C82.3918 59.7737 82.4965 59.3621 82.6689 58.9775C82.8489 58.5955 83.0869 58.2436 83.3742 57.9342C83.6653 57.623 84.008 57.3647 84.3875 57.1708C84.5174 57.1063 85.6248 56.7462 85.6398 56.725C85.5321 56.5409 84.4879 56.8116 84.3006 56.8761C83.8632 57.0466 83.4606 57.2963 83.114 57.6128C82.7543 57.9424 82.4545 58.3319 82.2281 58.7638C81.9906 59.2071 81.8371 59.6903 81.7748 60.1893C81.7072 60.6704 81.7386 61.1602 81.867 61.6287C81.9814 62.0609 82.1876 62.4635 82.4709 62.8092C82.6993 63.0905 82.9774 63.3271 83.2916 63.5072C83.3544 63.5468 83.4191 63.5828 83.4857 63.6149C83.898 63.8172 84.3508 63.9231 84.8099 63.9243C85.2912 63.9325 85.7687 63.8396 86.2114 63.6518C86.6618 63.4614 87.074 63.1909 87.4279 62.8534C87.4279 62.846 87.4501 62.8313 87.4501 62.8248C87.8016 62.4875 88.0936 62.093 88.3128 61.6581C88.5455 61.2025 88.6898 60.7069 88.7376 60.1976C88.7903 59.7158 88.7425 59.2282 88.5976 58.7657Z" fill="white"/>
<path fill-rule="evenodd" clip-rule="evenodd" d="M82.2421 46.8255C82.2112 46.7906 82.175 46.7613 82.1345 46.739C82.0867 46.7183 82.035 46.7086 81.9834 46.7104C81.7671 46.7169 81.5291 46.739 81.3138 46.7602C81.1695 46.7749 79.6874 46.8826 79.6295 47.0696C79.5715 47.2565 80.8532 47.3652 81.4577 47.4011C81.2559 48.0199 81.055 48.6313 80.8672 49.2575C80.8026 49.4739 80.6085 50.172 80.4989 50.5817C79.9877 50.6038 79.1312 50.6471 78.7494 50.6683C78.9435 49.8395 79.5117 47.2712 79.4475 47.1202C79.4397 47.1129 79.461 47.0558 79.4682 47.0484C79.4759 47.041 79.5044 47.0051 79.5189 46.9904C79.5416 46.9717 79.5652 46.955 79.5908 46.9407C79.6212 46.9292 79.6502 46.9147 79.6772 46.8974C79.685 46.8752 79.5981 46.8826 79.5855 46.89C79.5508 46.9013 79.517 46.9158 79.4851 46.9333C79.4547 46.9578 79.4257 46.9843 79.3982 47.0124C79.3721 47.0443 79.3528 47.0809 79.3403 47.1202C78.8947 48.0484 78.369 49.9058 78.0595 50.8958C78.0441 50.9495 78.0392 51.0059 78.0455 51.0615C78.0499 51.1109 78.0668 51.1582 78.0952 51.1987C78.1252 51.2389 78.1648 51.2706 78.2106 51.2908C78.2599 51.3146 78.3139 51.3269 78.369 51.3267C78.8083 51.3267 79.2476 51.3341 79.6932 51.3341C79.9959 51.3488 80.2981 51.3562 80.6003 51.3562C80.6669 51.3588 80.733 51.3466 80.7943 51.3202C80.8614 51.2978 80.9237 51.2635 80.9788 51.219C81.0893 51.1382 81.1719 51.0248 81.2153 50.8948C81.3597 50.3985 81.5185 49.9095 81.6619 49.4215C81.7266 49.2198 82.3063 47.1617 82.2808 47.1258C82.2967 47.072 82.3015 47.0157 82.2952 46.96C82.289 46.9114 82.2706 46.8652 82.2421 46.8255Z" fill="white"/>
<path fill-rule="evenodd" clip-rule="evenodd" d="M79.3712 41.4485C79.3418 41.4559 79.3133 41.4706 79.2848 41.478C79.3418 41.4652 79.3992 41.4553 79.4571 41.4485H79.3712Z" fill="white"/>
<path fill-rule="evenodd" clip-rule="evenodd" d="M12.6923 42.2151C16.5213 41.9492 20.3536 41.801 24.1893 41.7703C42.5918 41.6294 60.9795 41.5603 79.3707 41.4489C79.3413 41.4563 79.3128 41.471 79.2843 41.4784C79.3413 41.4656 79.3987 41.4558 79.4567 41.4489H79.3707L95.2612 36.3105C95.3978 36.2614 95.5456 36.254 95.686 36.2893C95.7459 36.3041 95.8024 36.3307 95.8521 36.3678C95.9013 36.4048 95.9429 36.4514 95.9742 36.5048C96.0423 36.617 96.0679 36.7501 96.0457 36.8796C96.0211 37.0321 95.9578 37.1756 95.8618 37.2968C94.0842 39.6358 92.3019 41.9747 90.5142 44.3137C90.4143 44.4453 90.2869 44.5534 90.1406 44.6305C90.004 44.7076 89.8504 44.7496 89.694 44.753C89.0824 44.753 87.8301 44.7604 87.1248 44.7668C86.5102 45.8681 85.8981 46.9612 85.2903 48.0662C85.1392 48.3324 84.8867 48.7854 84.7149 49.0948C85.1604 50.0673 85.8952 51.6428 86.1974 52.2911C87.4207 52.2953 88.6378 52.4622 89.8171 52.7875C91.7168 53.4063 91.2567 53.7304 92.7538 54.2775C93.0772 54.4137 93.2785 54.5647 93.4518 54.8603C93.5489 55.0288 93.6034 55.2185 93.6102 55.4129C93.6232 55.6416 93.5942 55.8708 93.5238 56.0888C92.8793 58.5503 92.9556 57.262 93.4953 58.565C93.5894 58.8626 93.587 59.1824 93.4876 59.4785C93.3442 59.9757 93.3036 60.2916 93.0125 60.7889C92.9155 60.9506 92.7967 61.0984 92.6601 61.2281C92.5085 61.3752 92.3362 61.4993 92.1489 61.5965C91.7965 61.7734 91.4059 61.8626 91.0115 61.8561C89.4213 61.8561 89.9832 62.3598 89.1982 61.345C90.422 58.7252 88.6653 56.0473 86.1318 55.9681C83.1667 55.9976 81.4973 58.3624 80.6196 60.9629C80.5964 61.0567 80.5549 61.1449 80.497 61.2226C80.441 61.3084 80.37 61.3838 80.288 61.4454C80.2088 61.5065 80.1219 61.5572 80.0292 61.5965C79.9404 61.6272 79.8472 61.6443 79.7531 61.6471C71.7065 61.8128 70.1162 61.7834 67.4963 61.6544C69.5905 61.3782 79.3756 60.8911 79.8361 60.776C80.7495 57.3688 82.6863 55.0546 86.3741 54.9396C87.6486 54.9534 88.5122 55.1771 89.3754 55.8825C90.0199 56.4866 90.3327 57.0916 90.5485 57.9913C90.8947 59.8192 90.6634 60.2723 90.6137 60.3367C90.6707 60.3008 90.8898 60.2078 91.4701 60.3367C91.5498 60.3346 91.6289 60.3275 91.7076 60.3155V60.3229L91.7153 60.3155H91.7076C91.808 60.1139 92.1822 59.4951 92.2401 59.3026C92.2512 59.2748 92.2512 59.2438 92.2401 59.216C91.4407 57.2223 91.6357 58.5972 92.3835 55.993C92.4013 55.9447 92.4086 55.8933 92.4057 55.842C92.4052 55.8185 92.3975 55.7956 92.3835 55.7766C92.3405 55.719 92.2802 55.6765 92.2116 55.6551C91.5565 55.4239 91.9234 55.6477 90.9159 55.0574C90.9009 55.0574 90.3405 54.4128 89.1089 54.0205C87.9865 53.7185 86.8356 53.4597 85.5756 53.4882C85.4501 53.4906 85.3265 53.4607 85.2155 53.4017C85.1122 53.3416 85.0291 53.2513 84.978 53.1429C84.4025 51.8906 83.9202 50.8969 83.352 49.6436C83.3028 49.5304 83.2825 49.4066 83.2936 49.2836C83.3124 49.1461 83.3593 49.0138 83.4312 48.895C84.3446 47.2614 85.3647 45.0081 86.6116 43.6627C86.784 43.5456 86.9862 43.4816 87.1948 43.4785C87.8393 43.4721 89.1167 43.4785 89.8007 43.4785C91.8587 40.8016 93.1829 39.1827 93.9887 38.2609C94.0842 38.1631 94.1904 38.0763 94.3053 38.0021C94.2696 38.0095 94.0606 38.0942 93.5069 38.2683C88.7869 39.7582 84.0675 41.2439 79.349 42.7252C79.2592 42.7595 79.1641 42.7766 79.068 42.7759C78.636 42.7759 78.2053 42.7685 77.7733 42.7685C54.7066 42.6654 32.0737 42.5411 9.00061 42.4711L12.6923 42.2151Z" fill="white"/>
<path fill-rule="evenodd" clip-rule="evenodd" d="M12.1917 55.709H16.7224C17.8624 55.709 18.4315 56.36 18.4315 57.2284C18.4315 58.3942 17.6451 59.3169 16.0713 59.3169H11.5407L12.1917 55.709ZM60.9569 44.5049L63.7515 51.0126L68.9914 44.5049H75.2856L75.2533 44.7508L65.7323 55.9263L64.4028 63.4958H59.0306L60.3602 55.9263L57.0895 48.9278H53.7511L51.1727 63.4967H45.8317L48.4101 48.9278H42.8711L43.6585 44.5076H60.9569V44.5049ZM33.4949 44.5049L30.1577 63.4958H44.6152L45.4293 58.9384H36.3441L38.8672 44.5049H33.4949ZM28.6226 63.4958H23.2816L26.6179 44.5049H31.9589L28.6226 63.4958ZM13.3852 48.8458H17.7261C18.6755 48.8458 19.1369 49.3882 19.1369 50.0936C19.1369 51.043 18.4315 51.7511 17.157 51.7511H12.8704L13.3852 48.8486V48.8458ZM8.85914 44.5049L5.51733 63.4958H15.3116C19.1645 63.4691 23.7218 61.9764 23.7218 57.2017C23.7218 55.791 23.1251 54.3259 21.7963 53.5395C24.2652 52.2917 24.6178 50.1479 24.6178 49.0088C24.6178 45.9423 21.904 44.5049 18.4591 44.5049H8.85914Z" fill="white"/>
</g>
<defs>
<clipPath id="clip0_178_17">
<rect width="90.7586" height="28" fill="white" transform="translate(5.51733 36)"/>
</clipPath>
</defs>
</svg>
