<svg width="150" height="150" viewBox="0 0 150 150" fill="none" xmlns="http://www.w3.org/2000/svg">
<rect width="150" height="150" rx="75" fill="white"/>
<path d="M28.4149 61.8062H18.0469V66.4708H28.4149V61.8062Z" fill="#0079C1"/>
<path d="M18.6752 84.5997C15.5452 83.3469 15.0957 80.7557 15.2622 79.6167H9.51831C9.51831 82.2032 11.2229 87.8031 18.5485 89.5115C25.4745 88.2017 28.0541 83.2235 28.4148 80.898C27.2494 84.315 22.5877 86.1658 18.6752 84.5997Z" fill="#0079C1"/>
<path d="M28.4983 80.8184V66.4709H34.0168V80.8184C33.9053 81.7371 33.2308 84.0837 31.4248 86.1192C26.2073 90.9817 20.1091 90.2655 17.7123 89.2996C23.2641 88.9604 27.5786 84.2815 28.4983 80.8184Z" fill="#002F99"/>
<path d="M61.5701 88.4821H43.0452C42.1406 88.4821 41.2963 88.3132 40.5124 87.9755C39.7285 87.6378 39.0411 87.1795 38.4501 86.6006C37.8591 86.0097 37.3948 85.3222 37.0571 84.5383C36.7194 83.7423 36.5505 82.898 36.5505 82.0056C36.5505 81.101 36.7194 80.2568 37.0571 79.4729C37.3948 78.6889 37.8591 78.0015 38.4501 77.4105C39.0411 76.8195 39.7285 76.3551 40.5124 76.0175C41.2963 75.6797 42.1406 75.5109 43.0452 75.5109H55.9981V79.2195H43.0452C42.6592 79.2195 42.2974 79.298 41.9597 79.4547C41.622 79.5994 41.3265 79.7985 41.0733 80.0517C40.82 80.305 40.621 80.6005 40.4762 80.9382C40.3315 81.2758 40.2591 81.6316 40.2591 82.0056C40.2591 82.3915 40.3315 82.7533 40.4762 83.091C40.621 83.4166 40.82 83.7061 41.0733 83.9593C41.3265 84.2126 41.622 84.4116 41.9597 84.5563C42.2974 84.7011 42.6592 84.7735 43.0452 84.7735H57.8615V74.5883C57.8615 74.2144 57.7832 73.8586 57.6263 73.521C57.4816 73.1832 57.2827 72.8878 57.0293 72.6345C56.7761 72.3812 56.4806 72.1822 56.1429 72.0375C55.8052 71.8807 55.4494 71.8023 55.0755 71.8023H40.2591V68.1118H55.0755C55.9801 68.1118 56.8243 68.2806 57.6083 68.6183C58.3922 68.9561 59.0797 69.4204 59.6706 70.0113C60.2616 70.5902 60.7259 71.2717 61.0636 72.0555C61.4013 72.8395 61.5701 73.6838 61.5701 74.5883V88.4821Z" fill="#012169"/>
<path d="M72.1822 88.4821H71.2597C70.355 88.4821 69.5108 88.3133 68.7269 87.9755C67.943 87.6379 67.2556 87.1795 66.6646 86.6006C66.0736 86.0097 65.6092 85.3222 65.2716 84.5383C64.9338 83.7423 64.765 82.8981 64.765 82.0056V60.6946H68.4736V82.0056C68.4736 82.3915 68.546 82.7533 68.6907 83.091C68.8355 83.4166 69.0344 83.7061 69.2878 83.9594C69.541 84.2126 69.8365 84.4116 70.1742 84.5563C70.5119 84.7011 70.8737 84.7735 71.2597 84.7735H72.1822V88.4821Z" fill="#012169"/>
<path d="M103.58 78.2969C103.58 79.6959 103.315 81.0166 102.785 82.2588C102.254 83.489 101.53 84.5684 100.613 85.4971C99.6974 86.4137 98.624 87.1433 97.3933 87.6861C96.1634 88.2167 94.8489 88.4821 93.4497 88.4821H83.192C81.7933 88.4821 80.4787 88.2167 79.2486 87.6861C78.0183 87.1433 76.945 86.4137 76.0284 85.4971C75.1239 84.5684 74.4062 83.489 73.8756 82.2588C73.3449 81.0166 73.0796 79.6959 73.0796 78.2969V68.1118H76.7882V78.2969C76.7882 79.1894 76.951 80.0276 77.2766 80.8115C77.6143 81.5834 78.0726 82.2649 78.6516 82.8558C79.2304 83.4347 79.9058 83.899 80.6777 84.2488C81.4616 84.5865 82.2999 84.7614 83.192 84.7735H86.4848V68.1118H90.1569V84.7735H93.4497C94.3426 84.7614 95.1747 84.5865 95.9462 84.2488C96.7305 83.899 97.4117 83.4347 97.9907 82.8558C98.5697 82.2649 99.0281 81.5834 99.3652 80.8115C99.703 80.0276 99.8723 79.1894 99.8723 78.2969V68.1118H103.58V78.2969Z" fill="#012169"/>
<path d="M129.932 88.4821H111.407C110.502 88.4821 109.658 88.3132 108.874 87.9755C108.09 87.6378 107.403 87.1795 106.812 86.6006C106.221 86.0097 105.757 85.3222 105.419 84.5383C105.081 83.7423 104.912 82.898 104.912 82.0056C104.912 81.101 105.081 80.2568 105.419 79.4729C105.757 78.6889 106.221 78.0015 106.812 77.4105C107.403 76.8195 108.09 76.3551 108.874 76.0175C109.658 75.6797 110.502 75.5109 111.407 75.5109H124.36V79.2195H111.407C111.021 79.2195 110.659 79.298 110.322 79.4547C109.984 79.5994 109.688 79.7985 109.435 80.0517C109.182 80.305 108.982 80.6005 108.838 80.9382C108.693 81.2758 108.621 81.6316 108.621 82.0056C108.621 82.3915 108.693 82.7533 108.838 83.091C108.982 83.4166 109.182 83.7061 109.435 83.9593C109.688 84.2126 109.984 84.4116 110.322 84.5563C110.659 84.7011 111.021 84.7735 111.407 84.7735H126.223V74.5883C126.223 74.2144 126.145 73.8586 125.988 73.521C125.843 73.1832 125.644 72.8878 125.391 72.6345C125.138 72.3812 124.842 72.1822 124.505 72.0375C124.167 71.8807 123.811 71.8023 123.437 71.8023H108.621V68.1118H123.437C124.342 68.1118 125.186 68.2806 125.97 68.6183C126.753 68.9561 127.441 69.4204 128.032 70.0113C128.623 70.5902 129.088 71.2717 129.425 72.0555C129.763 72.8395 129.932 73.6838 129.932 74.5883V88.4821Z" fill="#012169"/>
<path d="M140.543 88.4821H139.621C138.717 88.4821 137.872 88.3133 137.089 87.9755C136.304 87.6379 135.617 87.1795 135.027 86.6006C134.436 86.0097 133.971 85.3222 133.633 84.5383C133.295 83.7423 133.127 82.8981 133.127 82.0056V60.6946H136.835V82.0056C136.835 82.3915 136.907 82.7533 137.053 83.091C137.197 83.4166 137.396 83.7061 137.649 83.9594C137.902 84.2126 138.198 84.4116 138.536 84.5563C138.874 84.7011 139.235 84.7735 139.621 84.7735H140.543V88.4821Z" fill="#012169"/>
</svg>
