<svg width="116" height="57" viewBox="0 0 116 57" fill="none" xmlns="http://www.w3.org/2000/svg">
<path d="M0 56.9455V0H20.78C23.7859 0 26.5042 0.650805 28.9351 1.95241C31.366 3.22691 33.2871 5.04374 34.6986 7.40291C36.1362 9.76208 36.855 12.528 36.855 15.7007C36.855 16.8938 36.7113 18.1548 36.4237 19.4835C36.1362 20.7851 35.6265 22.0053 34.8946 23.1443C34.1628 24.2832 33.1172 25.178 31.758 25.8288C33.5093 26.2627 34.8946 27.0762 35.914 28.2693C36.9334 29.4625 37.6914 30.8455 38.1881 32.4182C38.7108 33.9639 39.0506 35.5367 39.2075 37.1366C39.3643 38.7093 39.4427 40.133 39.4427 41.4075C39.4427 44.2819 38.6978 46.8986 37.2079 49.2578C35.718 51.5899 33.7184 53.4609 31.2091 54.871C28.6999 56.254 25.9292 56.9455 22.8972 56.9455H0ZM11.7622 46.6139H21.6425C23.0017 46.6139 24.2302 46.2885 25.328 45.6377C26.452 44.9598 27.3407 44.0378 27.9941 42.8718C28.6737 41.7058 29.0135 40.377 29.0135 38.8856C29.0135 37.6382 28.6737 36.4586 27.9941 35.3469C27.3407 34.2079 26.452 33.286 25.328 32.5809C24.2302 31.8759 23.0017 31.5234 21.6425 31.5234H11.7622V46.6139ZM11.7622 21.3545H19.3685C20.9368 21.3545 22.2829 20.8122 23.4069 19.7275C24.5308 18.6429 25.0928 17.2735 25.0928 15.6193C25.0928 13.9381 24.5308 12.65 23.4069 11.7552C22.2829 10.8603 20.9368 10.4129 19.3685 10.4129H11.7622V21.3545Z" fill="#405580"/>
<path d="M45.257 56.9455V0H63.4493C67.2394 0 70.7811 0.745715 74.0745 2.23715C77.3941 3.70146 80.3085 5.74878 82.8178 8.37912C85.3532 10.9823 87.3267 14.0059 88.7381 17.4497C90.1757 20.8664 90.8945 24.5408 90.8945 28.4727C90.8945 32.4047 90.1757 36.0926 88.7381 39.5364C87.3267 42.9531 85.3532 45.9767 82.8178 48.607C80.3085 51.2102 77.3941 53.2576 74.0745 54.749C70.7811 56.2133 67.2394 56.9455 63.4493 56.9455H45.257ZM57.0193 44.7429H63.4493C65.5665 44.7429 67.5661 44.3225 69.4481 43.4819C71.33 42.6413 73.0029 41.4753 74.4666 39.9838C75.9303 38.4924 77.0674 36.7705 77.8776 34.8181C78.7141 32.8385 79.1323 30.7234 79.1323 28.4727C79.1323 26.222 78.7141 24.1205 77.8776 22.1681C77.0674 20.2156 75.9303 18.4937 74.4666 17.0023C73.029 15.4837 71.3692 14.3042 69.4873 13.4635C67.6053 12.6229 65.5926 12.2026 63.4493 12.2026H57.0193V44.7429Z" fill="#405580"/>
<path d="M95.8825 35.813H116V56.6836H95.8825V35.813Z" fill="#ED7C3C"/>
</svg>
