<svg width="100" height="100" viewBox="0 0 100 100" fill="none" xmlns="http://www.w3.org/2000/svg">
<rect width="100" height="100" rx="10" fill="#008269"/>
<path d="M25.8868 48.44C25.8868 48.4336 25.8932 48.4292 25.8992 48.4314C27.371 48.9755 28.5265 49.7801 29.3656 50.8452C30.2277 51.8932 30.6587 53.0721 30.6587 54.3821C30.6587 55.6518 30.0943 56.8509 28.9654 57.9794C27.8571 59.0879 26.4717 59.9746 24.8093 60.6397C23.1468 61.3047 21.5562 61.6372 20.0374 61.6372C19.0112 61.6372 18.0055 61.5869 17.0204 61.4861C15.3784 61.3853 14.1059 61.3349 13.2029 61.3349H9.65881C9.03172 61.3349 8.52337 60.8266 8.52337 60.1995V60.1995C8.52337 59.8479 8.68623 59.5162 8.96439 59.3012L9.97032 58.5236C10.8829 57.8181 11.4173 56.7297 11.4173 55.5762V41.763C11.4173 40.9703 10.8803 40.2782 10.1125 40.0812L9.44324 39.9095C8.70469 39.7201 8.33413 38.8931 8.68432 38.2158V38.2158C8.88802 37.8218 9.29449 37.5744 9.738 37.5744H13.1721C15.0398 37.5744 16.8767 37.5139 18.6828 37.393C20.0785 37.3124 21.1047 37.2721 21.7614 37.2721C23.2802 37.2721 24.6143 37.5341 25.7637 38.058C26.9335 38.582 27.8366 39.2975 28.4728 40.2044C29.1091 41.0911 29.4272 42.0887 29.4272 43.1971C29.4272 44.1846 29.0988 45.1318 28.4421 46.0387C27.8087 46.9415 26.9617 47.7445 25.9011 48.4476C25.895 48.4517 25.8868 48.4473 25.8868 48.44V48.44ZM23.5163 44.7993C23.5163 43.3482 23.1674 42.1794 22.4695 41.2926C21.7717 40.4059 20.7352 39.9625 19.3601 39.9625V39.9625C17.8691 39.9625 16.9896 41.4305 16.9896 42.9215V44.7974C16.9896 46.7017 18.5333 48.2455 20.4376 48.2455V48.2455C21.4433 48.2455 22.2027 47.9532 22.7158 47.3688C23.2494 46.7844 23.5163 45.9279 23.5163 44.7993ZM20.9302 58.6445C22.1206 58.6445 23.0545 58.3422 23.7318 57.7376C24.4296 57.133 24.7785 56.3067 24.7785 55.2588C24.7785 53.8884 24.3885 52.7699 23.6086 51.9033C22.8492 51.0165 21.7101 50.5329 20.1913 50.4522V50.4522C18.4231 50.4522 16.9896 51.8857 16.9896 53.654V54.9051C16.9896 56.7556 18.1405 58.4851 19.9866 58.6134C20.2846 58.6341 20.5889 58.6445 20.8994 58.6445H20.9302Z" fill="white"/>
<path d="M44.2254 60.6746C44.0225 61.0794 43.6084 61.3349 43.1556 61.3349H34.1466C33.5112 61.3349 32.996 60.8198 32.996 60.1844V60.1844C32.996 59.841 33.1494 59.5155 33.4143 59.2969L34.443 58.448C35.3593 57.6918 35.8899 56.5659 35.8899 55.3779V41.8625C35.8899 41.0604 35.3572 40.3558 34.5854 40.1374L33.8944 39.9418C33.16 39.7339 32.8007 38.9048 33.1513 38.2267V38.2267C33.3585 37.826 33.7719 37.5744 34.223 37.5744H43.2359C43.8716 37.5744 44.3869 38.0897 44.3869 38.7254V38.7254C44.3869 39.0686 44.2338 39.3938 43.9694 39.6125L42.9246 40.4764C41.9984 41.2422 41.4622 42.3814 41.4622 43.5831V57.0694C41.4622 57.8747 42.0006 58.5805 42.7771 58.7935L43.4721 58.9841C44.2003 59.1838 44.5638 59.9996 44.2254 60.6746V60.6746Z" fill="white"/>
<path d="M70.4581 44.5274C70.4581 45.0379 70.1456 45.4964 69.6704 45.683V45.683C69.1386 45.8919 68.5329 45.7108 68.203 45.2444L64.9878 40.6992C64.6342 40.1993 64.0599 39.9021 63.4475 39.9021V39.9021C62.4055 39.9021 61.5608 40.7468 61.5608 41.7888V57.1651C61.5608 57.9642 62.103 58.6614 62.8774 58.8583L63.5638 59.0328C64.3027 59.2207 64.6742 60.0475 64.3241 60.7247V60.7247C64.1207 61.1181 63.7148 61.3652 63.272 61.3652H54.2301C53.603 61.3652 53.0946 60.8568 53.0946 60.2297V60.2297C53.0946 59.8782 53.2575 59.5464 53.5356 59.3314L54.5416 58.5538C55.4542 57.8484 55.9885 56.7599 55.9885 55.6065V41.7076C55.9885 40.7104 55.1802 39.9021 54.183 39.9021V39.9021C53.5969 39.9021 53.0474 40.1865 52.7089 40.6649L49.4696 45.2444C49.1396 45.7108 48.5339 45.8919 48.0021 45.683V45.683C47.5269 45.4964 47.2144 45.0379 47.2144 44.5274V39.1452C47.2144 38.0844 48.2089 37.3046 49.239 37.5575V37.5575C49.3666 37.5888 49.4974 37.6046 49.6288 37.6046H68.0437C68.1751 37.6046 68.3059 37.5888 68.4335 37.5575V37.5575C69.4636 37.3046 70.4581 38.0844 70.4581 39.1452V44.5274Z" fill="white"/>
<path d="M86.1506 56.3773C86.1506 55.7727 85.9043 55.1983 85.4117 54.6542C84.9397 54.11 84.3342 53.6062 83.5954 53.1427C82.8565 52.6792 81.8713 52.1149 80.6399 51.4498C79.1211 50.6235 77.8794 49.898 76.9147 49.2733C75.9706 48.6485 75.1702 47.923 74.5134 47.0967C73.8566 46.2705 73.5283 45.3636 73.5283 44.3761C73.5283 43.3684 74.0003 42.2902 74.9444 41.1415C75.8885 39.9726 77.0379 38.9952 78.3925 38.2092C79.7676 37.4031 81.0298 37 82.1792 37C83.5543 37 85.1655 37.1511 87.0126 37.4534C87.5488 37.5412 88.0434 37.6306 88.4965 37.7218C90.0806 38.0404 91.0764 39.4814 91.0764 41.0973V43.2356C91.0764 44.2327 90.2681 45.0411 89.2709 45.0411V45.0411C88.6014 45.0411 87.9939 44.6661 87.6471 44.0935C86.9299 42.9091 86.154 41.9553 85.3194 41.2322C84.2932 40.3253 83.2054 39.8718 82.056 39.8718C81.2351 39.8718 80.5886 40.1338 80.1165 40.6578C79.6445 41.1616 79.4084 41.8065 79.4084 42.5925C79.4084 43.2374 79.6547 43.8521 80.1473 44.4365C80.6604 45.0008 81.2864 45.5248 82.0253 46.0085C82.7847 46.472 83.8006 47.0464 85.0731 47.7316C86.5714 48.5377 87.7823 49.243 88.7059 49.8476C89.6295 50.4522 90.4094 51.1576 91.0456 51.9637C91.6819 52.7699 92 53.6566 92 54.6239C92 55.6316 91.4972 56.7199 90.4915 57.8888C89.4858 59.0375 88.2543 60.0149 86.7971 60.821C85.3604 61.607 84.0469 62 82.8565 62C81.4198 62 79.6958 61.8489 77.6844 61.5466C77.0599 61.4517 76.49 61.3549 75.9745 61.2561C74.3818 60.9509 73.3743 59.5107 73.3743 57.889V55.7794C73.3743 54.774 74.1894 53.9589 75.1948 53.9589V53.9589C75.8572 53.9589 76.4595 54.3239 76.8182 54.8806C77.5889 56.077 78.4523 57.0394 79.4084 57.7678C80.5988 58.6747 81.7995 59.1282 83.0104 59.1282C83.9545 59.1282 84.7139 58.8662 85.2886 58.3422C85.8633 57.7981 86.1506 57.1431 86.1506 56.3773Z" fill="white"/>
</svg>
