<svg width="100" height="100" viewBox="0 0 100 100" fill="none" xmlns="http://www.w3.org/2000/svg">
<rect width="100" height="100" rx="50" fill="black"/>
<path d="M63.6472 15.3204C66.8974 16.2886 69.5944 17.3951 71.6692 18.7781C73.7438 20.0921 75.6108 21.4752 77.2014 22.7891C78.792 24.103 79.9676 25.2787 80.6592 26.1777L81.7656 27.6299L72.4298 36.9657C72.2224 36.6891 71.9458 36.3433 71.6692 35.8591C71.3234 35.3751 70.5626 34.6145 69.387 33.5079C68.2114 32.4015 66.9666 31.4334 65.5836 30.5344C64.2004 29.7045 62.4024 28.8746 60.1896 28.1831C57.9766 27.4916 55.6944 27.0767 53.3432 27.0767C46.912 27.0767 41.5178 29.2204 37.2304 33.5771C32.9428 37.8647 30.7298 43.2587 30.7298 49.6901C30.7298 56.1213 32.8736 61.5153 37.2304 65.8029C41.5178 70.0905 46.912 72.3035 53.3432 72.3035C55.8328 72.3035 58.2532 71.9577 60.5352 71.2661C62.8174 70.5747 64.6846 69.7447 66.206 68.8457C67.7274 67.8775 69.0412 66.9785 70.2168 66.0105C71.3924 65.0423 72.2224 64.2125 72.7064 63.5209L73.4672 62.4835L82.3188 71.8193C82.0422 72.2343 81.6964 72.7183 81.1432 73.3407C80.59 73.9631 79.4836 75.0697 77.6164 76.6601C75.8184 78.2507 73.882 79.6337 71.8074 80.8095C69.7328 81.9851 67.0358 83.0915 63.7164 84.1289C60.397 85.1661 56.9392 85.6503 53.3432 85.6503C42.8318 85.6503 33.9801 82.1233 26.788 75.1387C19.596 68.1541 16 59.6483 16 49.8283C16 39.9393 19.596 31.5025 26.788 24.5179C33.9801 17.5334 42.8318 14.0065 53.3432 14.0065C57.0084 13.9374 60.397 14.4214 63.6472 15.3204Z" fill="white"/>
<path d="M52.535 65.4864C52.535 65.4864 31.2395 33.1436 52.535 33.1436C73.8314 33.1436 52.535 65.4864 52.535 65.4864Z" fill="white"/>
<path d="M52.535 48.1182C54.5522 48.1182 56.1869 46.4833 56.1869 44.4666C56.1869 42.4498 54.5522 40.8149 52.535 40.8149C50.5187 40.8149 48.8831 42.4498 48.8831 44.4666C48.8831 46.4833 50.5187 48.1182 52.535 48.1182Z" fill="black"/>
</svg>
