<svg width="79" height="86" viewBox="0 0 79 86" fill="none" xmlns="http://www.w3.org/2000/svg">
<path d="M79 54.2241C77.3592 56.3311 76.7394 56.4928 75.2379 55.0816C73.2766 53.2406 72.1661 50.9171 71.62 48.2047C70.9085 44.6677 71.1605 41.0976 71.893 37.7223C74.5499 25.4807 68.0627 10.1348 53.4706 5.72094C46.201 3.52087 38.863 3.07428 31.4909 4.86338C21.8792 7.19498 15.1267 13.4171 10.485 22.3106C9.03579 25.0861 7.83859 27.9875 7.12711 31.089C6.90396 32.0589 6.4839 32.9796 6.22398 33.7221C5.45999 34.4893 4.76689 34.5055 3.81912 34.1934C3.60384 33.7959 3.30978 33.259 3 32.6945C4.79839 24.204 8.4188 16.7433 14.3575 10.5924C19.6083 5.15927 25.9015 1.93997 33.2209 0.682396C40.6877 -0.602581 47.9756 -0.0792747 55.1563 2.30712C70.0238 7.25251 76.9705 21.3435 76.0071 35.144C75.8495 37.4125 75.4899 39.6701 75.1327 41.917C74.4319 46.3225 75.2379 50.2048 78.5248 53.3092C78.6955 53.468 78.7584 53.7502 79 54.2241Z" fill="#D11C1C"/>
<path d="M3.39285 52.8387C7.16554 52.9292 10.6194 52.2967 14.0549 51.3715C19.8588 49.8113 23.7553 46.3154 25.1621 40.1098C25.9999 36.4144 27.1617 32.8419 28.9295 29.4969C30.8132 25.9328 33.6086 23.6498 37.5154 23.1352C47.0975 21.8705 55.2778 29.6257 53.8339 40.3042C53.4283 43.2933 52.5456 46.2171 51.816 49.1516C50.2484 55.4474 46.6206 60.3173 41.686 64.0948C34.8703 69.3152 27.2435 72.9451 19.2449 75.7589C18.7997 75.915 18.2939 75.8848 17.2927 76C17.1821 75.792 16.887 75.3649 16.7184 74.8886C16.5577 74.4342 16.5314 73.9303 16.4602 73.5253C17.2848 72.4742 18.3229 72.1812 19.3556 71.7788C24.7143 69.6903 29.8755 67.1637 34.8809 64.2701C43.0585 59.5426 48.2092 52.6335 49.6212 42.8746C49.8926 40.9994 50.3774 39.1763 50.3116 37.2438C50.0744 30.2961 43.2983 25.1089 36.8885 27.077C34.6756 27.7559 33.1106 29.3654 32.0015 31.4241C30.6261 33.978 29.8173 36.7648 28.9953 39.5459C28.4947 41.2349 28.0786 42.9567 27.4938 44.6101C26.4979 47.4242 24.7801 49.7399 22.4169 51.4345C16.671 55.557 10.161 56.5724 3.53777 56.6191C2.87387 55.3564 2.82467 54.0951 3.39022 52.836L3.39285 52.8387Z" fill="#D11C1C"/>
<path d="M0 42.5662C0.272875 41.6927 0.559137 41.1582 1.2012 40.8408C2.29002 40.48 3.38421 40.8463 4.45966 41.0878C7.76628 41.8255 9.98141 40.99 11.6454 38.0928C12.5149 36.579 12.9643 34.8781 13.4164 33.1718C14.9199 27.5101 17.4186 22.4072 21.6937 18.2891C25.8349 14.3012 30.7175 12.2286 36.3997 12.0306C41.5201 11.8516 46.5013 12.4402 51.3595 14.2714C59.7868 17.4481 65.2709 25.1606 64.9927 34.1755C64.8591 38.4617 63.9841 42.6746 64.11 46.9636C64.1607 48.7269 63.9493 50.5391 64.2786 52.2429C65.0248 56.1059 67.0661 59.1687 70.4718 61.225C71.5232 61.8598 72.8125 62.0795 73.6498 63.0533C74.094 63.9241 74.1688 64.7435 73.5616 65.4813C73.0212 66.0511 72.3392 66.0917 71.7851 65.8884C66.4562 63.9215 62.6895 60.2972 61.1485 54.7088C59.8963 50.1674 60.2013 45.4907 60.8355 40.8652C61.3008 37.4741 61.4374 34.0533 61.0306 30.6894C60.3619 25.139 57.0554 21.322 52.3094 18.8099C46.2632 15.6142 39.7196 15.0391 33.1519 16.1812C28.2159 17.0412 24.3529 20.0497 21.4663 24.2518C19.3207 27.3744 17.8253 30.7762 16.9585 34.4819C16.2629 37.447 15.142 40.225 12.9643 42.4359C9.24035 46.2149 3.6865 46.3153 0 42.5662Z" fill="#D11C1C"/>
<path d="M37.9469 33.4182C39.0373 32.7534 39.9194 32.8546 40.7501 33.9133C40.8179 34.1595 41.0153 34.5207 40.9991 34.8735C40.5852 43.9604 37.1648 51.4883 29.9241 57.1477C24.0387 61.7459 17.3064 64.2515 10.1304 65.7123C8.80448 65.9831 7.40011 66.1634 6.06611 65.7804C5.43021 65.4331 5.13529 64.9052 5 64.1805C5.58446 62.1944 7.33518 62.2984 8.91271 62.0056C15.4907 60.7831 21.6628 58.6112 27.1368 54.5381C33.1874 50.0385 36.2125 43.9193 37.2027 36.5804C37.3219 35.7078 37.4354 34.8352 37.5709 33.9652C37.5871 33.853 37.706 33.7603 37.9469 33.4156V33.4182Z" fill="#D11C1C"/>
<path d="M58.6904 79.5484C59.1479 80.442 59.0409 81.3456 58.7399 82.2594C58.0102 83.2682 56.9769 83.3088 56.175 82.7961C54.8953 81.9739 53.665 80.9514 52.6083 79.7727C48.541 75.2343 43.9355 74.9524 38.8838 76.953C35.5491 78.2747 32.5732 80.3232 29.6726 82.5683C28.6621 83.3499 27.7647 84.3687 26.2566 83.8661C25.6053 83.5331 25.1218 82.8505 25 81.8518C25.0986 81.5325 25.1131 81.1451 25.2866 80.9651C30.8129 75.275 37.0283 71.2769 44.5405 71.0084C48.0751 70.8827 51.352 72.1701 54.0763 75.0474C55.5613 76.6168 57.1446 78.0539 58.6875 79.552L58.6904 79.5484Z" fill="#D11C1C"/>
<path d="M65.6155 72.379C66.1869 73.7878 66.1428 74.8257 65.3391 75.9284C62.909 76.4165 61.1831 74.3189 59.5847 72.3698C56.7135 68.8665 54.755 64.5599 54 59.8426C54.5995 58.2796 55.1894 57.8192 56.0305 58.0602C56.2256 58.2239 56.4742 58.3166 56.5693 58.5297C56.9458 59.3855 57.2941 60.263 57.6125 61.1555C59.3896 66.1478 61.5525 70.6519 65.6155 72.379Z" fill="#D11C1C"/>
<path d="M38.0026 83.5693C41.1311 80.1966 44.6247 80.17 48 83.3384C47.527 85.1217 46.4499 85.8614 45.1001 85.8479C42.712 85.821 40.0874 86.922 38 83.5693H38.0026Z" fill="#D11C1C"/>
</svg>
