<svg width="116" height="46" viewBox="0 0 116 46" fill="none" xmlns="http://www.w3.org/2000/svg">
<g clip-path="url(#clip0_1_734)">
<path d="M23.174 15.0622C15.9888 15.0622 8.83586 15.0297 1.65059 15.0947C0.258852 15.0947 -0.0648088 14.7044 -7.66697e-05 13.3705C0.0970215 10.7029 0.0646555 8.06786 -7.66697e-05 5.40025C-0.0324427 4.48936 0.226486 4.16404 1.1651 4.19657C15.3414 4.29417 29.5178 4.00138 43.6941 4.39176C45.9274 4.45683 48.0635 5.00987 50.1026 5.95329C54.828 8.13292 56.8347 12.0693 56.8995 17.0141C57.0289 26.2206 56.9318 35.4271 56.9642 44.6662C56.9642 45.7722 56.5758 46.0325 55.5725 46C52.9832 45.9349 50.3939 45.9349 47.8046 46C46.6718 46.0325 46.4452 45.6096 46.4452 44.6011C46.4776 40.5997 46.4776 36.5657 46.4776 32.5643C46.4776 30.0268 46.4776 30.0268 43.8883 30.0268C29.8738 30.0268 15.8593 29.9943 1.81242 30.0594C0.35595 30.0594 -0.0324427 29.669 0.0646555 28.2376C0.19412 25.9278 0.19412 23.5855 0.0646555 21.2432C-7.66702e-05 19.7793 0.388316 19.3239 1.90952 19.3564C15.1149 19.4215 28.3202 19.3889 41.558 19.3889C42.27 19.3889 42.9497 19.3889 43.6618 19.3889C46.5423 19.3889 46.51 19.3889 46.5423 16.4611C46.5423 15.2899 46.1539 15.0297 45.0535 15.0297C37.7388 15.0947 30.4564 15.0622 23.174 15.0622Z" fill="#BE9B2F"/>
<path d="M92.6966 30.0269C85.479 30.0269 78.229 30.0594 71.0113 29.9943C69.9109 29.9943 69.5225 30.2546 69.5549 31.4257C69.6196 35.8175 69.5549 40.2093 69.5872 44.6011C69.5872 45.6421 69.3283 46.0325 68.2279 46C65.5738 45.9349 62.9522 45.9675 60.2982 46C59.5537 46 59.0683 45.9349 59.0683 44.9915C59.1006 35.4597 58.8741 25.8953 59.1654 16.3635C59.3595 9.8246 63.3082 5.85572 69.7167 4.7171C71.6263 4.35925 73.5683 4.26166 75.5102 4.22913C88.3919 4.19659 101.306 4.22913 114.188 4.16406C115.644 4.16406 116 4.55444 115.935 5.98584C115.806 8.45826 115.838 10.9632 115.935 13.4682C115.968 14.7369 115.644 15.0948 114.35 15.0948C105.384 15.0297 96.4511 15.0622 87.4857 15.0622C82.0482 15.0622 76.5783 15.0948 71.1408 15.0297C69.9109 15.0297 69.4578 15.2574 69.4901 16.6238C69.5872 19.389 69.5225 19.4215 72.3383 19.4215C86.2558 19.4215 100.173 19.454 114.091 19.389C115.547 19.389 115.935 19.7793 115.838 21.2107C115.709 23.5856 115.741 25.9929 115.838 28.3677C115.903 29.7015 115.547 30.1245 114.155 30.0919C107.035 29.9943 99.8819 30.0269 92.6966 30.0269Z" fill="#BE9B2F"/>
<path d="M58.0001 2.11458C39.2278 2.11458 20.4554 2.11458 1.68312 2.11458C0.906331 2.11458 -0.161749 2.47243 0.0324473 0.943437C0.0971795 0.325332 0.25901 0.0650771 0.873965 0.0976089C1.26236 0.130141 1.61838 0.0976089 2.00678 0.0976089C39.3896 0.0976089 76.7724 0.0976089 114.123 0.130141C114.705 0.130141 115.612 -0.390368 115.903 0.618118C116.227 1.85433 115.612 2.11458 114.447 2.11458C95.6418 2.08205 76.8048 2.11458 58.0001 2.11458Z" fill="#BE9B2F"/>
</g>
<defs>
<clipPath id="clip0_1_734">
<rect width="116" height="46" fill="white"/>
</clipPath>
</defs>
</svg>
