<svg width="75" height="75" viewBox="0 0 75 75" fill="none" xmlns="http://www.w3.org/2000/svg">
<g clip-path="url(#clip0_263_276)">
<path d="M75 0H0V75H75V0Z" fill="#A53860"/>
<path d="M58.0276 24.6375C57.6751 24.1425 57.33 23.64 56.9625 23.16C54.375 19.8375 51.0075 17.6475 47.0475 16.335C43.4775 15.15 39.81 14.7975 36.075 15.105C32.6475 15.39 29.3626 16.215 26.2126 17.595C26.1151 17.64 26.0101 17.6775 25.9051 17.6925C31.8151 13.2975 38.4601 11.6475 45.765 12.4275C45.765 12.3975 45.765 12.3675 45.7575 12.3375C45.3525 12.27 44.9551 12.195 44.5501 12.1425C44.1301 12.09 43.7101 12.0375 43.2901 12.015C38.0551 11.685 33.2176 12.9975 28.6576 15.5325C25.3126 17.3925 22.4851 19.8375 20.0476 22.7775C16.6576 26.8725 14.5051 31.53 13.5526 36.7575C13.1851 38.76 13.05 40.77 13.1025 42.8025C13.11 43.125 13.1475 43.44 13.17 43.815C13.035 43.7775 12.945 43.7625 12.855 43.725C11.025 43.0125 9.19505 42.285 7.35755 41.5875C7.06505 41.475 6.92255 41.3475 6.93005 41.0025C6.95255 39.51 6.87005 38.0175 6.96755 36.5325C7.17755 33.555 7.95755 30.7125 9.28505 28.0425C11.4376 23.715 14.2426 19.89 18.0001 16.815C22.0351 13.5225 26.6026 11.3475 31.7326 10.3875C34.0276 9.96003 36.345 9.81003 38.6775 10.005C41.82 10.2675 44.8425 11.025 47.595 12.5925C52.185 15.2025 55.74 18.795 57.765 23.76C57.885 24.045 57.9825 24.3375 58.0875 24.6225C58.0725 24.6225 58.0575 24.6375 58.035 24.645L58.0276 24.6375Z" fill="#162A3A"/>
<path d="M30.375 65.0925C22.5525 57.8625 14.7675 50.6625 6.98254 43.4625C6.99004 43.4475 7.00504 43.4325 7.01254 43.4175C7.27504 43.545 7.54504 43.6725 7.80754 43.8C13.095 46.4175 18.3825 49.035 23.6625 51.6525C25.8075 52.7175 27.9525 53.7675 30.09 54.84C30.345 54.9675 30.4725 54.9075 30.6525 54.7275C35.2575 50.115 39.8625 45.5025 44.4675 40.89C47.46 37.8975 50.445 34.8975 53.4375 31.905C58.2375 27.0975 63.0375 22.2825 67.8375 17.475C67.8975 17.415 67.965 17.355 68.0925 17.34C55.53 33.2475 42.9675 49.1475 30.375 65.0925Z" fill="#162A3A"/>
<path d="M54.5401 22.3875C55.0201 22.98 55.4776 23.5425 55.9876 24.165C54.3526 24.4725 52.7776 24.765 51.2101 25.0575C51.1951 25.035 51.1876 25.0125 51.1726 24.99C52.2901 24.1275 53.4001 23.2725 54.5476 22.3875H54.5401Z" fill="#162A3A"/>
<path d="M29.91 22.065C29.52 20.7075 29.13 19.3425 28.7325 17.955C29.46 17.7225 30.1575 17.505 30.915 17.265C30.5925 18.9 30.285 20.4825 29.97 22.065H29.9025H29.91Z" fill="#162A3A"/>
<path d="M18.645 39.1875C17.2725 40.125 15.9 41.07 14.46 42.0525C14.43 41.6175 14.4 41.25 14.37 40.8825C14.295 39.99 14.2875 39.99 15.15 39.81C16.305 39.5775 17.46 39.345 18.6075 39.1125C18.615 39.135 18.63 39.1575 18.6375 39.18L18.645 39.1875Z" fill="#162A3A"/>
</g>
<defs>
<clipPath id="clip0_263_276">
<rect width="75" height="75" fill="white"/>
</clipPath>
</defs>
</svg>
